<svg xmlns="http://www.w3.org/2000/svg" viewBox="-30 -20 520 435"><style>@keyframes waveRotation{0%,to{transform:rotate(0deg)}50%{transform:rotate(30deg)}}@keyframes waveTopInner{0%,to{opacity:0}25%,75%{opacity:.1}40%,60%{opacity:1}}@keyframes waveTopOuter{0%,to{opacity:0}40%,60%{opacity:.1}50%{opacity:1}}@keyframes waveBottomOuter{0%,to{opacity:1}10%,90%{opacity:.1}50%{opacity:0}}@keyframes waveBottomInner{0%,10%,90%{opacity:1}25%,75%{opacity:.1}50%{opacity:0}}</style><g style="transform-origin:center center;animation:waveRotation 1s infinite linear"><path d="M450 159l-1 291-449-1L1 0l449 1v158M135 44c-3 6-5 14-4 21l-11-14c-7-7-16-8-25-2-6 4-10 9-13 17-6 10-6 19 1 29v3c-12-8-32 3-34 19-5 11-4 22 3 32l10 18c-5-1-11-3-16-1-16 5-22 19-12 35l17 24 66 98 28 40a130 130 0 00125 41c33-5 60-22 80-49 23-29 31-63 27-100-2-16-7-30-13-44l-19-46-26-76c-2-8-8-14-16-15-9-2-18 1-24 10-4 6-4 13-2 20l13 68c2 7 4 15-6 18l-7-9-20-30-65-96-19-26c-5-6-12-8-20-5-9 3-16 9-18 20M32 317c6 19 16 34 31 46 21 18 46 25 73 25 6 0 13-5 12-11 0-7-4-11-12-12l-22-4c-16-5-29-15-41-27a88 88 0 01-25-59c0-4-1-8-6-10-8-4-17 1-17 11 0 14 2 27 7 41M293 54c7 3 15 6 21 10a94 94 0 0146 78c0 5 5 9 11 10 5 1 11-4 11-9 1-11 0-23-4-34a107 107 0 00-110-80c-4 0-9 5-8 10 0 6 4 11 8 11l25 4M70 386l-5-1c-14-4-25-11-32-24-5-10-7-19-7-30 0-6-4-11-10-11-5-1-11 2-12 8 0 7 0 15 2 23 3 18 14 33 28 44 14 10 30 16 48 15 5 0 10-4 11-9s-2-11-6-12l-17-3M354 10l-27-4c-7 0-11 3-12 9 0 6 3 12 9 13 5 2 10 2 15 2 24 4 42 28 42 51l2 8c2 5 8 8 13 7s8-6 8-11l-2-19c-6-27-23-45-48-56z" fill-opacity="0" stroke-width="1.001"/><path fill="#fedc5b" d="M286 190c10-4 8-11 6-19l-14-67c-1-7-2-14 2-20 6-9 15-11 25-10 8 1 13 7 16 15l26 76 19 45c6 14 11 29 13 44 5 37-4 71-27 100-20 26-47 43-80 49a131 131 0 01-126-41l-28-40-66-97-17-24c-10-16-4-30 12-35 5-2 11-1 17 1l9 11 45 65 12 17c7-9 7-9 2-17l-32-46-43-63c-4-5-7-11-6-17 0-15 21-27 34-18l3 2 4 5 55 81 21 30c9-4 10-5 5-13l-31-45-49-71c-4-6-9-13-9-22 2-7 6-13 12-16 9-6 18-5 25 2l12 14 4 7 33 48 41 61c4 5 7 2 10 0 4-2 1-4 0-7l-38-55-33-48c-6-9-14-16-13-28 1-10 8-16 17-19 8-3 15-1 20 5l19 25a36072 36072 0 0186 127l-14 11c-25 25-37 54-34 90 1 16 6 30 13 44l9 12c3 4 8 3 12 0l-4-7c-10-16-17-34-18-53-1-21 5-41 16-59 8-11 17-21 27-30z"/><path fill="#5faced" d="M33 316c-5-13-7-27-7-41 0-9 9-14 17-10 5 2 6 6 6 10 1 23 10 42 26 58a91 91 0 0062 31c8 1 13 5 13 11s-6 12-13 12c-27 0-52-7-73-25a97 97 0 01-31-46z" style="animation:waveBottomInner 1s infinite linear"/><path fill="#5faced" d="M295 54l-25-3c-5-1-8-5-9-11 0-5 5-11 9-11a108 108 0 01114 114c0 5-6 9-11 9-6-1-11-5-11-10a94 94 0 00-46-78l-21-10z" style="animation:waveTopInner 1s infinite linear"/><path fill="#5faced" d="M71 385c6 1 12 1 17 3 5 1 7 7 6 12s-6 9-11 9a77 77 0 01-76-59c-2-7-2-15-2-23 1-6 7-9 12-8 6 1 10 6 10 11 0 11 2 21 7 30a49 49 0 0037 25z" style="animation:waveBottomOuter 1s infinite linear"/><path fill="#5faced" d="M356 11c25 10 42 28 48 55l2 19c0 5-3 10-8 11s-11-1-13-6l-2-8c0-24-18-48-43-51l-15-2c-6-2-9-7-8-13s5-9 12-9l27 4z" style="animation:waveTopOuter 1s infinite linear"/><path fill="#f19645" d="M286 190c-10 9-19 19-27 30a97 97 0 00-16 59c1 19 8 37 18 53l4 7c-4 3-9 4-12 0l-9-12c-7-14-12-28-13-44-3-36 9-65 34-90l14-11 7 8zM51 117c-1 6 2 12 6 17l43 63 32 46c5 8 5 8-2 17l-12-17-45-65-9-11-11-18c-8-10-8-20-2-32z"/><path fill="#f19745" d="M84 66c0 9 5 16 9 22l49 71 31 45c5 8 4 9-5 13l-21-30-55-81-5-6-3-4c-7-10-7-20 0-30zm53-22c-1 12 7 19 13 28l33 48 38 55c1 3 4 5 0 7-3 2-6 5-10 0l-41-61-33-48-4-7c-2-8 0-15 4-22z"/></g></svg>