<svg width="378" height="101" fill="none" xmlns="http://www.w3.org/2000/svg"><path d="m3.922 51.11 17.508 7.546v2.977L2.023 52.75v-1.828l1.899.187zm17.508-6.54L3.945 52.14l-1.922.165v-1.828l19.407-8.86v2.953zM56.148 51.188c-4.5 3.796-6.515 6.468-6.937 8.203-.469 2.109.844 3.093 3.187 3.28 1.829.142 4.313-.28 6.938-1.077 6.14-1.875 12.984-5.86 13.031-9.469.047-4.078-9.375-4.828-19.265-5.625-8.11-.61-16.5-1.313-19.5-3.516-1.172-.843-1.36-2.062-.094-3.75 3.656-4.875 12.937-11.906 22.969-17.625 6.28-3.609 12.843-6.703 18.468-8.437 5.39-1.64 9.797-2.063 12-.422.375.281.703.656.985 1.125 2.39 4.172-20.063 25.031-22.22 27.094l-.14.093c-.375.376-.375.938 0 1.266a.962.962 0 0 0 1.36 0l.14-.094c2.25-2.156 25.594-23.859 22.547-29.203a5.468 5.468 0 0 0-1.453-1.64c-2.812-2.11-7.828-1.735-13.828.093-5.719 1.782-12.422 4.922-18.844 8.579-10.265 5.859-19.781 13.078-23.531 18.14-2.016 2.672-1.594 4.64.422 6.14 3.469 2.579 12.187 3.282 20.531 3.938 9 .703 17.578 1.407 17.531 3.844 0 2.766-6.187 6.094-11.672 7.781-2.437.703-4.687 1.125-6.234.985-.984-.094-1.594-.422-1.453-1.172.328-1.36 2.203-3.703 6.328-7.219.422-.328.422-.89.094-1.266-.375-.328-.985-.375-1.36-.047zm27.329-9.657c-.047 0-4.735 7.032-4.829 9.188-.14 2.672 4.5-.469 7.875-3.094-.468 1.547-.515 3.047.75 3.703.797.375 1.922-.14 3.141-1.266 1.031-.984 2.297-2.484 3.61-4.218.328-.422.234-1.032-.188-1.313-.422-.328-1.031-.234-1.36.188-4.03 6.187-6.328 6.515-2.39-.047.234-.328.234-.844-.047-1.172-.375-.375-.984-.422-1.36-.094-4.171 4.078-7.734 5.813-7.734 5.813.422-1.594 4.078-6.61 4.125-6.61.282-.468.188-1.03-.28-1.359-.423-.281-1.032-.14-1.313.281zm9.562.89c0 .048-4.312 13.267 1.594 11.626 1.594-.469 4.922-3.703 7.922-7.547 2.109 1.125 4.968 1.266 8.531-.234.469-.188.703-.75.469-1.266a.952.952 0 0 0-1.219-.516c-2.813 1.22-4.969 1.172-6.563.47 1.36-1.829 2.625-3.75 3.563-5.438.75-1.5 1.359-2.813 1.641-3.938.281-1.406.14-2.484-.61-3.187-.656-.657-1.781-.844-3.328-.422-3.703.937-5.719 3.61-6.187 6.515a7.61 7.61 0 0 0 .28 3.844 7.347 7.347 0 0 0 1.923 3.094c-2.72 3.469-5.578 6.375-6.938 6.75-2.437.703.75-9.14.75-9.188.188-.468-.094-1.03-.61-1.172-.515-.187-1.03.094-1.218.61zm9.188 1.454a4.894 4.894 0 0 1-1.266-2.11c-.328-.937-.375-1.968-.234-3 .375-2.156 1.921-4.218 4.781-4.921.844-.235 1.359-.235 1.547-.047.187.187.187.656.047 1.36-.235.937-.75 2.109-1.454 3.421-.937 1.688-2.156 3.516-3.421 5.297zm9.046 3.89c.704-.046 1.594-.374 2.391-.843.844-.516 1.641-1.266 2.109-2.25.375-.75.563-1.64.469-2.578-.14-1.36-.844-1.828-1.828-1.735-.609.094-1.312.516-2.016 1.172a13.968 13.968 0 0 0-1.734 2.11c-1.406 2.203-2.156 5.015-.281 6.234 2.109 1.313 5.39-1.031 8.578-3.328 1.922-1.36 3.75-2.672 4.969-3.094-.141.281-.375.61-.563.938-1.078 1.593-2.344 3.515-1.594 5.062.422.938 1.219 1.031 2.204.563 1.125-.516 2.718-2.157 4.218-3.657 1.407-1.406 2.25-3.047 2.438-2.906 0 0-.188 1.078-.375 2.25-.469 2.344-.938 4.922.937 5.625 2.438.938 10.735-5.484 10.782-5.531a.915.915 0 0 0 .14-1.313c-.281-.422-.89-.515-1.312-.187-.047 0-7.5 5.812-8.907 5.25-.375-.14-.046-1.922.235-3.516.328-1.734.609-3.328-.281-4.031-1.125-.938-3 .938-5.016 3-1.219 1.219-2.484 2.531-3.328 3.094.14-.703.844-1.735 1.453-2.625.422-.657.844-1.266 1.078-1.782.375-.937.328-1.687-.562-2.109-.094 0-.141-.047-.235-.047-1.875-.468-4.594 1.5-7.359 3.469-2.719 1.922-5.485 3.89-6.469 3.234-.141-.093-.234-.234-.281-.468h.14zm.422-2.015c.188-.375.375-.75.61-1.078a9.439 9.439 0 0 1 1.406-1.781c.234-.188.469-.375.609-.47.047.517-.047.985-.234 1.407-.328.61-.844 1.078-1.406 1.453-.328.188-.703.328-.985.469zm82.922-11.766c-14.672 5.063-26.765 6.47-32.812 5.578-2.063-.328-3.282-.843-3.469-1.5-.141-.609.609-1.593 2.484-2.859 5.578-3.75 19.735-8.812 45.844-13.922 23.813-4.687 37.641-5.484 44.25-3.984 2.391.515 3.75 1.312 4.219 2.297.422.89.094 2.062-.891 3.422-2.344 3.468-8.203 7.64-15.844 11.625-12.609 6.656-29.859 12.75-42.093 15.468 5.062-11.156 13.406-24.609 13.406-24.703.281-.422.141-1.031-.281-1.312-.094-.047-.188-.094-.282-.094l-.046-.047c-.188 0-.329 0-.469.047-.703.14-2.25.75-4.594 3.375-.375.375-.328.984.047 1.36.422.328 1.031.328 1.359-.094.141-.094.235-.188.328-.328-2.953 5.062-8.062 14.156-11.39 22.218-1.36.282-2.578.516-3.75.657-2.953.468-5.344.562-6.844.28-.984-.187-1.453-.562-1.312-1.077.234-.938 1.406-2.391 3.703-4.313.422-.328.468-.937.093-1.36-.328-.421-.937-.468-1.359-.093-2.578 2.203-3.984 3.938-4.312 5.297-.516 1.875.562 3 2.812 3.422 1.734.328 4.313.234 7.5-.235.797-.14 1.688-.28 2.578-.468-2.437 6.515-3.469 11.953-.797 13.453.469.281 1.078.094 1.313-.328a.938.938 0 0 0-.375-1.313c-2.063-1.172-.797-6.14 1.734-12.14 12.422-2.626 30.703-9 43.922-15.938 7.875-4.172 14.016-8.578 16.547-12.234 1.359-1.97 1.781-3.797 1.031-5.391-.75-1.5-2.484-2.672-5.531-3.328-6.891-1.547-20.906-.75-45.047 3.984-26.344 5.157-40.734 10.313-46.5 14.203-2.719 1.828-3.703 3.516-3.281 4.97.422 1.452 2.156 2.437 5.015 2.858 6.282.985 18.75-.468 33.704-5.624.515-.141.796-.704.609-1.22a1.002 1.002 0 0 0-1.219-.609zm56.344 7.266c-.469-.14-1.031-.094-1.594.047-1.031.234-2.25.89-3.281 1.734-1.078.844-1.969 1.922-2.297 3-.141.563-.187 1.078-.047 1.594.656 3 5.672-.797 8.203-3 .282 1.875 1.125 4.266 3.844 3.797 2.344-.422 4.875-2.86 6.656-4.547a58.556 58.556 0 0 1 1.266-1.313c-.609 1.547-2.063 6.657-2.063 6.657-.14.515.188 1.031.704 1.172.421.093.843-.094 1.031-.422.656-.844 7.406-9.422 7.453-8.203.141 4.125.75 6.422 2.672 7.265 1.875.797 4.594-.14 8.906-3 .469-.281.563-.843.281-1.312-.281-.422-.89-.563-1.312-.282-3.703 2.485-5.906 3.376-7.078 2.86-1.078-.516-1.5-2.484-1.594-5.813-.141-4.687-5.063.235-8.203 3.985.797-2.39 2.156-5.485 1.078-6.14-.844-.235-3.469 2.155-4.5 3.14-1.594 1.547-3.844 3.75-5.625 4.078-1.969.328-1.688-3.938-1.688-3.938.047-.234-.046-.515-.234-.703-.375-.375-.984-.422-1.359-.047 0 0-.235.188-.516.516.047-.469-.234-.984-.703-1.125zm-.188 1.875c-1.875 1.734-5.062 4.594-5.156 4.031-.047-.14-.047-.328 0-.562.235-.703.891-1.453 1.641-2.11.844-.656 1.781-1.172 2.531-1.359.281-.047.516-.047.609 0 .141 0 .282.047.375 0zm34.079.75c-4.032-.188-6.61 2.11-6.704 5.156-.046.75.188 1.407.704 1.828.656.61 1.781.797 3.234.188.609-.234 1.359-.844 2.156-1.688a22.858 22.858 0 0 0 1.781-2.156c-.843 3.797-1.312 6.844-1.125 8.438.188 1.312.75 1.922 1.782 1.687.468-.094.797-.562.75-1.031-.047-.422-.469-.703-.938-.61-.094 0 .141-.187.094-.421-.234-1.922.656-6.47 2.062-11.813 2.344-3.562 4.875-7.969 7.079-12.234 3.796-7.453 6.656-14.766 5.859-17.297a1.53 1.53 0 0 0-.516-.844c-.75-.703-1.593-.469-2.484.516-2.25 2.437-5.906 11.344-8.859 20.437-.938 3-1.875 6-2.625 8.86-1.5 2.25-2.907 4.172-4.032 5.39-.609.657-1.125 1.078-1.453 1.219-3.047 1.219-.328-3.938 3.094-3.938a.958.958 0 0 0 .937-.843c.047-.469-.328-.844-.796-.844zm5.484-6.188c.328-1.078.656-2.203 1.031-3.28 2.86-8.86 6.328-17.532 8.391-19.735.14-.14 0-.375.094-.281.046 0 .093.093.093.187.703 2.063-2.062 8.906-5.718 15.985-1.219 2.39-2.579 4.828-3.891 7.125zm3.703 8.907s9-.61 6.469-5.766c-.61-1.266-1.641-1.64-2.813-1.453-.89.14-1.875.703-2.812 1.5-.844.75-1.688 1.734-2.297 2.813-1.453 2.437-2.016 5.39-.094 7.406.047 0 .094.047.188.093 2.156 1.454 5.39 1.079 8.953-.187 3.328-1.172 7.031-3.094 10.312-4.875.469-.281.657-.844.375-1.313-.234-.468-.797-.609-1.265-.374-3.235 1.78-6.844 3.656-10.078 4.78-2.954 1.032-5.579 1.407-7.172.423-.703-.75-1.125-2.907.234-3.047zm.094-1.735c0-.093.047-.14.094-.187a9.512 9.512 0 0 1 1.921-2.344c.657-.562 1.313-.984 1.875-1.078.329-.047.563.047.75.422 1.125 2.297-3.468 3.047-4.64 3.187zm18.328-2.672c-1.969 2.672-3.422 5.297-3.844 7.126-.187.75-.234 1.406-.047 1.921.235.75.75 1.172 1.547 1.313.61.14 1.453-.047 2.485-.516 2.625-1.172 5.718-4.312 8.062-6.984a660.72 660.72 0 0 0-1.594 4.312c-17.39 10.078-26.015 19.97-28.922 26.72-1.828 4.171-1.5 7.312.235 8.812 1.734 1.546 4.828 1.359 8.625-1.125 6-3.985 14.203-14.11 21.609-33.094 2.578-1.5 5.344-3 8.344-4.5a.94.94 0 0 0 .422-1.266.94.94 0 0 0-1.266-.422 205.122 205.122 0 0 0-6.469 3.375 110.361 110.361 0 0 0 2.532-7.312.976.976 0 0 0-.328-1.125c-.422-.328-1.032-.234-1.36.234 0 0-6.234 8.672-10.64 10.64-.704.282-1.172.423-1.454.376-.046-.188-.046-.516.094-.938.375-1.593 1.688-3.937 3.516-6.422.328-.421.234-.984-.188-1.312-.422-.328-1.031-.234-1.359.188zM297.93 82.172c-2.953 1.969-5.203 2.25-6.282 1.312-1.125-.984-1.171-3.328.235-6.609 2.672-6.188 10.5-15.234 26.015-24.61-6.937 17.063-14.437 26.25-19.968 29.907zM351.523 32.875l-14.25 37.055h-2.531l14.25-37.055h2.531zm22.196 19.102L356 44.477v-2.93l19.805 8.86v1.874l-2.086-.304zM356 58.657l17.766-7.594 2.039-.235v1.875L356 61.586v-2.93z" fill="#fff"/></svg>