<?xml version="1.0" encoding="UTF-8" standalone="no"?>
<svg
   version="1.1"
   id="Layer_1"
   x="0px"
   y="0px"
   width="100%"
   viewBox="0 0 1259 765"
   enable-background="new 0 0 1259 765"
   xml:space="preserve"
   sodipodi:docname="man on computer__changed.svg"
   inkscape:version="1.2.1 (9c6d41e410, 2022-07-14)"
   xmlns:inkscape="http://www.inkscape.org/namespaces/inkscape"
   xmlns:sodipodi="http://sodipodi.sourceforge.net/DTD/sodipodi-0.dtd"
   xmlns="http://www.w3.org/2000/svg"
   xmlns:svg="http://www.w3.org/2000/svg"><defs
   id="defs12706" /><sodipodi:namedview
   id="namedview12704"
   pagecolor="#ffffff"
   bordercolor="#000000"
   borderopacity="0.25"
   inkscape:showpageshadow="2"
   inkscape:pageopacity="0.0"
   inkscape:pagecheckerboard="0"
   inkscape:deskcolor="#d1d1d1"
   showgrid="false"
   inkscape:zoom="0.49917265"
   inkscape:cx="668.10551"
   inkscape:cy="286.47403"
   inkscape:window-width="1360"
   inkscape:window-height="731"
   inkscape:window-x="1536"
   inkscape:window-y="0"
   inkscape:window-maximized="1"
   inkscape:current-layer="Layer_1" />
<path
   fill="#f5f5fd"
   opacity="1"
   stroke="none"
   d="M 784,766 H 1.048296 V 1.095513 H 1259.8268 V 766 H 784 M 949.51532,124.91494 c 0.29016,0.43079 0.58032,0.86158 0.26074,1.66344 -2.26184,1.79328 -5.17791,3.16259 -6.66534,5.45774 -4.8465,7.47844 -1.02088,15.21394 8.83081,19.80764 0.0684,2.32543 0.1369,4.65087 -0.008,7.78475 -0.92138,4.7968 -2.14325,9.56328 -2.63147,14.40379 -0.22833,2.2639 0.27808,5.20963 1.62653,6.9197 5.84192,7.40798 12.55621,13.68745 22.52747,13.61528 -3.1811,2.8047 -6.36219,5.60939 -9.99103,8.1063 -0.44428,-0.43055 -0.88855,-0.8611 -1.33283,-1.29168 -0.32605,0.98944 -0.6521,1.97889 -1.17431,3.59913 -2.31177,3.99289 -5.26422,7.75205 -6.82135,12.02022 -5.87683,16.10906 -11.30017,32.38355 -16.88935,48.58475 2.14936,1.23309 3.98157,2.28427 4.95471,3.41525 -1.52545,1.03333 -3.55706,1.73615 -4.48608,3.15894 -3.44629,5.27792 -6.18671,11.04129 -9.87317,16.12893 -2.32525,3.20908 -5.41223,6.57651 -8.92615,8.09995 -24.60015,10.66522 -50.36169,17.58771 -76.66168,22.57593 -3.85711,0.73159 -7.85834,1.98425 -11.6325,1.56225 -5.21247,-0.58279 -10.21015,-2.91809 -15.41993,-3.75329 -3.55847,-0.5705 -7.32214,0.13848 -11.82055,0.22622 -0.776,-0.67956 -1.98987,-1.22149 -2.25403,-2.06195 -1.33112,-4.23507 -2.1485,-8.64276 -3.63416,-12.8161 -4.69549,-13.19 -9.57751,-26.31403 -14.45324,-39.43912 -1.89563,-5.10284 -4.34778,-10.02942 -5.8653,-15.23484 -2.05914,-7.06336 -4.64178,-9.4319 -12.1087,-9.43967 -17.64923,-0.0183 -35.29853,-0.0237 -52.94764,0.0212 -1.80285,0.005 -3.59979,0.46561 -5.40801,0.57648 -5.21515,0.31976 -6.3017,3.62819 -5.63691,7.96381 0.26905,1.75483 1.12604,3.43107 1.79706,5.11053 2.0058,5.02063 4.22662,9.96262 6.047,15.04862 4.26709,11.92236 8.23431,23.95245 12.5423,35.85959 3.68823,10.19396 7.68139,20.27761 11.22271,31.14211 -0.22442,2.42264 -0.44879,4.84528 -1.61175,7.27363 -73.15497,-2.8e-4 -146.30994,-5.5e-4 -219.46494,-8.6e-4 -10.62335,-3e-5 -10.68359,4.3e-4 -10.57712,10.87174 0.0269,2.75589 -0.14346,5.9544 1.18131,8.0701 0.6575,1.05001 4.49921,0.0719 6.90042,0.07 12.66461,-0.0102 25.32929,-0.002 38.00452,0.83728 0.63861,2.00019 1.27716,4.00037 2.70739,6.11414 1.06543,-0.006 2.13093,-0.0124 3.8194,0.51953 1.81043,0.12427 3.62067,0.35245 5.4314,0.35654 15.29767,0.0346 25.44496,-0.70338 44.07037,-0.22529 -15.24381,89.94179 -31.45268,181.05128 -46.72107,267.81345 -1.73864,8.87079 -1.49151,18.30271 -3.18023,27.18393 -0.41712,2.19361 -1.4361,4.27277 -2.76282,5.8382 -3.59802,0.18432 -7.29639,-0.0966 -10.77259,0.65283 -6.59466,1.42157 -13.23999,2.96692 -19.52056,5.36206 -4.27722,1.63104 -4.15027,4.6972 0.002,6.48553 4.04608,1.74268 8.33911,3.28339 12.66974,3.9217 11.44696,1.68731 22.96771,2.88397 34.46881,4.19061 14.78479,1.67981 29.54803,3.68982 44.37707,4.8056 19.0094,1.43036 38.0697,2.23523 57.11817,3.08197 18.57574,0.82575 37.16052,1.50965 55.74823,1.98999 19.78503,0.51142 39.57904,1.03626 59.36761,0.98285 49.95111,-0.13489 99.90167,-0.53693 149.85156,-0.94983 16.29218,-0.13464 32.58472,-0.51672 48.87092,-0.99725 17.91994,-0.52881 35.83344,-1.28076 53.74824,-1.97376 16.7505,-0.64788 33.5004,-1.3117 50.2475,-2.04132 5.6291,-0.24517 11.2654,-0.5487 16.8695,-1.11236 15.3016,-1.53931 30.6513,-2.7973 45.8574,-5.01941 9.7096,-1.41889 19.2297,-4.23126 28.7562,-6.71942 1.7702,-0.46234 3.1663,-2.3562 4.735,-3.58942 -1.8376,-1.4928 -3.4589,-3.70087 -5.5561,-4.33581 -5.0254,-1.52125 -10.2289,-2.67878 -15.4421,-3.31189 -14.9353,-1.81373 -29.9112,-3.29377 -45.1853,-5.51191 -2.0896,-2.58276 -3.8833,-5.49762 -6.3313,-7.67804 -4.8875,-4.35339 -10.3471,-7.54193 -17.0326,-8.99438 -7.3061,-1.58734 -14.2799,-4.64557 -21.5112,-6.65796 -4.6507,-1.29437 -10.7969,-6.12891 -10.7993,-9.51782 -0.03,-42.32978 0.01,-84.65967 -0.063,-126.98935 -0.01,-3.57382 1.5521,-4.66568 4.8595,-4.56211 4.6616,0.14597 9.3325,-0.0317 13.997,0.0549 2.9506,0.0548 4.2715,-1.19562 4.2051,-4.176 -0.093,-4.16421 0.1519,-8.341 -0.064,-12.49606 -0.2495,-4.81339 1.9059,-6.46692 6.5662,-6.41297 14.1635,0.16401 28.3303,0.09 42.4957,0.0428 5.0762,-0.0169 7.9348,-2.91269 7.9662,-8.01483 0.049,-7.99893 0,-15.99847 0.5372,-24.40341 6.2379,-9.14539 8.1648,-19.14371 5.3529,-29.83237 -1.5498,-5.8913 -4.1843,-11.51209 -5.5443,-17.43518 -2.4314,-10.58908 -4.8929,-21.23849 -6.204,-32.00134 -1.8542,-15.22083 1.8207,-30.01563 5.588,-44.64002 5.2394,-20.33887 10.954,-40.55652 16.0824,-60.92245 2.9146,-11.57433 5.3999,-23.37671 4.0364,-35.39316 -0.52,-4.58373 -1.6543,-10.33743 -4.7204,-13.12566 -5.7693,-5.2463 -12.653,-10.17854 -19.951,-12.65141 -17.7621,-6.01852 -36.3274,-8.53307 -55.672,-9.07501 -3.4568,-0.0905 -7.3365,-1.9765 -10.5342,2.15689 -1.9346,-0.73425 -3.8693,-1.46849 -6.1401,-2.72662 -2.2875,-0.2672 -4.5748,-0.5344 -7.333,-1.38881 -6.607,-1.13675 -13.2142,-2.27349 -20.4908,-3.51685 -0.695,-0.43216 -1.3368,-1.03261 -2.0928,-1.27119 -11.0074,-3.4738 -15.0856,-12.84452 -18.2886,-21.98096 3.5532,1.70047 7.0717,2.02453 10.2785,-0.67253 3.254,-2.73676 2.026,-5.95145 0.7142,-9.12238 -1.2715,-3.0738 -0.1432,-5.16617 2.7668,-6.41411 4.1048,-1.7602 4.6232,-4.77494 4.1786,-8.95655 -0.4421,-4.15664 -0.4859,-8.75341 0.841,-12.62786 4.4725,-13.05869 4.2315,-15.02494 -6.0872,-24.213597 -0.6211,-0.553177 -1.2674,-1.079072 -1.8739,-1.647713 -3.5506,-3.329491 -4.5493,-6.961899 -2.2604,-11.630928 2.8572,-5.828125 1.5161,-10.173668 -3.9591,-13.607155 -8.9954,-5.640755 -18.7123,-5.35952 -27.68014,-0.912994 -7.63697,3.786636 -14.36255,3.462608 -21.9353,0.553855 -12.15876,-4.670257 -23.14588,1.674088 -25.37958,14.460244 -0.56006,3.205818 -1.69391,4.48368 -4.85273,5.05046 -7.80432,1.400292 -10.59326,9.021358 -5.97912,15.548438 3.92102,5.54652 9.88928,7.60307 16.06067,10.16448 -0.0538,1.71418 -0.10761,3.42834 -0.80084,5.42337 l -3.37409,1.94709 c 0.16181,0.32033 0.32361,0.64067 0.48541,0.961 0.72559,-0.21683 1.45124,-0.43366 2.76685,-0.14285"
   id="path12357"
   sodipodi:nodetypes="ccccccccsccscccccsccsssssscsssssssscssccsssscccsccscssssssssssssscsscsscssscsssssssscsssssssscccccscsssccsssssssssccccc"
   style="display:inline;opacity:0;fill:#564fd1;fill-opacity:1" />



<g
   id="g745"
   inkscape:label="Floor"><path
     fill="#dbe0fc"
     opacity="1"
     stroke="none"
     d="m 895.406,657.02201 c 14.96,1.6112 29.9359,3.09124 44.8712,4.90497 5.2132,0.63311 10.4167,1.79064 15.4421,3.31189 2.0972,0.63494 3.7185,2.84301 5.5561,4.33587 -1.5687,1.23316 -2.9648,3.12702 -4.735,3.58936 -9.5265,2.48816 -19.0466,5.30053 -28.7562,6.71942 -15.2061,2.22211 -30.5558,3.4801 -45.8574,5.01941 -5.6041,0.56366 -11.2404,0.86719 -16.8695,1.11236 -16.7471,0.72962 -33.497,1.39344 -50.2475,2.04132 -17.9148,0.693 -35.8283,1.44495 -53.74825,1.97376 -16.2862,0.48053 -32.57874,0.86261 -48.87092,0.99725 -49.94989,0.4129 -99.90045,0.81494 -149.85156,0.94983 -19.78857,0.0534 -39.58258,-0.47143 -59.36761,-0.98285 -18.58771,-0.48034 -37.17249,-1.16424 -55.74823,-1.98999 -19.04847,-0.84674 -38.10877,-1.65161 -57.11817,-3.08197 -14.82904,-1.11578 -29.59228,-3.12579 -44.37707,-4.8056 -11.5011,-1.30664 -23.02185,-2.5033 -34.46881,-4.19061 -4.33063,-0.63831 -8.62366,-2.17902 -12.66974,-3.9217 -4.1521,-1.78833 -4.27905,-4.85449 -0.002,-6.48553 6.28057,-2.39514 12.9259,-3.94049 19.52056,-5.36206 3.4762,-0.74939 7.17457,-0.46851 11.05341,0.0319 0.34375,1.49493 0.13928,2.4751 0.52423,3.08057 0.85425,1.34362 2.00415,2.4992 3.03351,3.7315 0.94696,-1.30169 2.13428,-2.49518 2.78149,-3.93188 0.857,-1.90241 1.29163,-3.99506 2.36414,-6.00708 9.81213,-0.99725 19.14996,-2.23078 28.52765,-2.93646 15.83136,-1.19135 31.68256,-2.14539 47.53522,-3.02155 20.00061,-1.10529 40.00445,-2.20508 60.01995,-2.96564 10.46369,-0.39758 20.95527,-0.0635 31.44105,0.33686 0.0314,1.45636 0.0561,2.51587 0.0636,3.97741 0.63495,2.70221 1.45392,4.97077 1.89667,7.31067 0.54828,2.89783 0.35986,6.00556 1.32587,8.72565 0.52166,1.46924 2.78631,2.31958 4.26458,3.4491 0.52082,-1.39655 1.63025,-2.8686 1.46229,-4.1767 -0.80359,-6.25885 -1.95325,-12.47321 -2.62983,-18.86389 2.41181,-0.71649 4.45667,-1.67481 6.53791,-1.76154 11.39923,-0.47485 22.8056,-0.91748 34.21289,-1.02801 17.24987,-0.16712 34.50256,-0.0803 51.75372,-0.012 1.72461,0.007 4.25853,-0.18756 6.5447,0.12331 -0.62598,6.15729 -1.33843,13.00078 -1.64202,18.72252 -0.0664,1.25189 0.55261,1.92911 1.41931,3.23056 1.13485,0.56805 2.13939,-0.0377 3.03112,-1.05272 1.25993,-1.43408 1.72923,-4.07179 2.08397,-6.11897 0.32889,-1.69337 0.8724,-6.23113 1.298,-7.59905 0.0263,-1.46008 0.56516,-3.05138 0.84934,-4.36089 0.22969,-2.90248 0.48121,-2.85707 0.48121,-2.85707 4.33184,0.26135 41.38145,0.50832 59.82585,0.92892 1.13116,0.0258 2.24133,0.97143 3.02087,1.66406 -4.42761,0.90826 -8.5888,1.37433 -12.57397,2.47662 -2.3338,0.64563 -4.38696,2.30548 -6.56641,3.50903 2.10626,1.68995 4.17853,3.42566 6.3454,5.03394 0.47443,0.35205 1.28229,0.30402 1.94281,0.34876 8.43323,0.57086 16.87451,1.6629 25.30011,1.5556 12.1958,-0.15521 24.38049,-1.18146 36.94922,-1.85651 0,-4.20025 0,-8.00586 0.3559,-11.85296 9.39056,-0.005 18.42535,0.0308 27.7218,0.26525 1.75946,1.08887 3.2572,1.97931 4.68402,3.21802 -1.19434,1.94879 -2.51026,3.44934 -3.40302,5.1695 -2.20416,4.24695 -0.31823,7.34692 4.35346,7.40374 3.80719,0.0464 7.64197,-0.19085 11.41589,0.18543 7.58959,0.75677 15.14609,1.84619 22.86109,3.12494 1.5918,2.92114 2.3244,6.794 6.4682,5.46728 1.1685,-0.37414 1.5795,-3.11493 2.8079,-4.7713 13.5677,-0.003 26.6657,0.0433 39.763,-0.0374 3.4509,-0.0212 6.9136,-0.30634 10.346,-0.69129 9.1563,-1.02697 18.2758,-2.47333 27.4539,-3.18261 7.9208,-0.61206 7.9476,-0.26532 7.9918,-8.12079 z"
     id="path12365"
     sodipodi:nodetypes="csscsssssssssssssssscscscsssccsscscssscscscccsscscscsccccssscscssscc"
     style="fill:#ebf1ab;fill-opacity:1" /></g>






<g
   id="g540"
   inkscape:label="Chair"
   style="display:inline"><path
     fill="#d7e8fe"
     opacity="1"
     stroke="none"
     d="m 849.1216,183.83347 c 2.42798,-4.27671 6.30774,-2.39066 10.12158,-1.63385 1.36719,1.05583 2.39258,1.81907 3.38526,1.77882 15.28308,-0.61983 29.27636,4.96593 43.40954,9.3904 11.43579,3.58001 19.35364,19.33909 17.04163,31.24145 -1.43726,7.3992 -2.28015,14.91544 -3.77161,22.30205 -1.46972,7.27968 -3.31262,14.49034 -5.18347,21.68141 -3.51257,13.50174 -7.20923,26.95554 -10.73852,40.45303 -1.90894,7.30017 -3.96131,14.58783 -5.3396,21.99448 -1.2649,6.79642 -2.53992,13.77478 -2.29395,20.6185 0.26416,7.35223 1.99866,14.70749 3.62183,21.94247 2.68713,11.97754 6.11499,23.79505 8.57715,35.81388 0.98779,4.8219 0.75793,10.06262 0.13659,14.99359 -0.54114,4.29535 -2.41247,8.42315 -4.16418,12.62823 -14.95081,-0.0674 -29.43347,-0.13797 -43.5813,-0.40246 9.70764,-1.28473 15.42737,-6.85706 19.04773,-15.19556 6.92737,-15.95514 4.29468,-31.96521 0.9823,-48.15082 -2.28394,-0.13791 -4.08093,-0.24643 -5.67969,-0.67505 2.10681,-0.59787 4.0155,-0.87561 6.32837,-1.21222 -0.44897,-2.36694 -1.00635,-4.26821 -1.13525,-6.19809 -0.27771,-4.15695 -2.21021,-5.61392 -6.41944,-5.20678 -4.61841,0.44671 -9.35144,-0.2164 -13.95263,0.31442 -8.70459,1.00427 -17.4209,2.19074 -25.97339,4.03799 -2.24219,0.48432 -3.90015,3.67365 -6.12207,5.77427 -0.5376,0.74157 -0.77979,1.32959 -1.01978,1.92254 0.002,0.005 -0.006,0.004 -0.26977,0.23712 -0.33631,1.14911 -0.40882,2.06513 -0.51636,3.37836 -0.13513,1.72214 -0.23523,3.04706 -0.57471,4.67462 -0.25464,1.87064 -0.2699,3.43863 -0.27893,5.43326 0.12366,5.36905 0.24109,10.31146 0.18909,15.48276 -0.0112,1.09418 0.14709,1.95941 0.34106,3.27792 0.72962,9.17386 1.47986,17.89041 2.10022,26.61618 0.53784,7.56534 0.47266,7.56998 7.86707,7.76044 -12.52686,3.91534 -24.97937,1.14358 -36.98835,0.61786 3.70508,-0.36081 6.99567,-0.55567 10.81391,-0.7818 0,-6.00379 -0.37195,-11.81461 0.071,-17.56262 1.23719,-16.0567 2.81165,-32.08741 4.5177,-48.37784 0.38172,-1.4527 0.49878,-2.65588 0.69556,-4.22653 2.75183,-6.04334 5.42371,-11.71927 8.38721,-17.43372 0.74731,-0.38263 1.20288,-0.72671 2.03979,-1.0838 2.79029,-0.6824 5.19898,-1.35178 7.98853,-1.98907 1.12073,-0.11872 1.86084,-0.26951 2.99035,-0.36051 2.97608,-0.45538 5.56275,-0.97052 8.53992,-1.37048 2.28833,-0.007 4.18591,-0.12924 6.55176,-0.21442 8.38184,0.037 16.29565,0.037 25.00696,0.037 -1.35376,-6.52133 -2.40723,-11.84064 -3.56665,-17.13678 -3.85633,-17.61133 -7.76783,-35.2106 -11.61939,-52.82297 -1.10058,-5.03323 -2.06946,-10.0953 -2.79358,-15.26236 1.22815,-4.48611 2.4895,-8.8706 -0.21045,-13.3221 0.24073,-0.42033 0.36206,-0.57333 0.76563,-0.83653 0.4657,-0.65457 0.6488,-1.19893 0.92139,-2.08993 2.44177,-5.26834 5.01977,-10.09649 7.10437,-15.12903 6.57885,-15.88214 4.36462,-28.63188 -6.81763,-38.48169 -3.17505,-2.79665 -7.00391,-4.85117 -10.53284,-7.24606 z"
     id="path12369" /><path
     fill="#eae8ec"
     opacity="1"
     stroke="none"
     d="m 797.85347,439.69064 c 12.42353,0.35977 24.87604,3.13153 37.84211,-0.87948 2.99194,-0.43763 5.39404,-0.44327 8.10376,-0.23551 2.74133,-0.056 5.17541,-0.3255 7.96753,-0.76825 2.98571,-0.44149 5.61328,-0.70977 8.24072,-0.97802 14.48279,0.0706 28.96545,0.14117 44.38342,0.21127 5.61694,-0.009 10.29883,-0.0169 14.98059,-0.0251 0.008,7.99927 0.0584,15.99881 0.009,23.99774 -0.0314,5.10215 -2.89002,7.99793 -7.96619,8.01484 -14.1654,0.0472 -28.33215,0.12121 -42.49573,-0.0428 -4.66027,-0.0539 -6.81567,1.59958 -6.56616,6.41296 0.21546,4.15506 -0.0292,8.33185 0.0636,12.49607 0.0664,2.98037 -1.25452,4.23083 -4.20508,4.17599 -4.66455,-0.0867 -9.33545,0.091 -13.99707,-0.0549 -3.30737,-0.10358 -4.86523,0.98828 -4.85949,4.5621 0.0677,42.32969 0.0329,84.65958 0.0627,126.98935 0.002,3.38892 6.14856,8.22345 10.79932,9.51783 7.23132,2.01239 14.20507,5.07061 21.51123,6.65795 6.68542,1.45246 12.14502,4.641 17.03259,8.99439 2.448,2.18042 4.2417,5.09528 6.4884,7.98151 0.1128,8.15893 0.0859,7.81219 -7.83484,8.42425 -9.1781,0.70929 -18.2976,2.15564 -27.45385,3.18262 -3.4325,0.38495 -6.89514,0.67004 -10.34607,0.69128 -13.09729,0.0807 -26.19532,0.0349 -40.03394,-0.2138 -2.58447,-8.542 -4.42834,-16.8338 -5.99658,-25.34711 8.79822,-3.13623 17.32104,-6.05084 26.21997,-9.09406 -1.49939,-4.83587 -2.90588,-9.37182 -4.32178,-14.25445 -2.078,-5.57892 -4.14636,-10.81122 -5.88611,-16.21411 5.66883,-2.48712 0.77186,-6.30255 1.76233,-9.62921 -0.37365,-1.26954 -0.84863,-2.18061 -1.53015,-3.33448 -0.35241,-1.07422 -0.49817,-1.90576 -0.31701,-3.02514 0.51403,-2.0788 0.86169,-3.86939 0.86413,-5.66059 0.0358,-26.0849 0.0254,-52.16992 0.0254,-78.25488 0,-1.99374 0.0187,-3.98782 -0.0109,-5.98117 -0.0603,-4.08887 -1.47754,-6.31839 -6.24732,-6.08234 -4.74731,0.23493 -9.58581,-0.28656 -14.29364,-1.04168 -1.31164,-0.21036 -3.1922,-2.36917 -3.2774,-3.7302 -0.28845,-4.60876 0.005,-9.267 0.28393,-13.89377 0.19355,-3.20785 -0.83789,-5.21023 -4.27325,-5.16989 -2.36835,0.0277 -4.73315,0.35404 -7.09955,0.54691 0.36847,-0.2518 0.73694,-0.5036 1.10535,-0.7554 -1.43909,-0.9451 -2.87818,-1.89017 -4.55835,-3.11469 -0.97705,-2.64007 -1.60352,-5.04199 -2.47455,-7.35168 -1.29639,-3.43805 -2.76556,-6.81095 -4.11298,-10.57874 1.54187,-1.74777 2.84949,-3.98031 4.56287,-4.3544 5.8728,-1.2821 11.88788,-1.91235 17.84869,-2.79117 z"
     id="path12371"
     style="fill:#cac9cb;fill-opacity:1" /><path
     fill="#eae8ec"
     opacity="1"
     stroke="none"
     d="m 795.2703,646.74814 c 2.4827,9.88028 4.1359,15.99593 5.2948,20.961 -7.7049,-0.62976 -15.2614,-1.71918 -22.85103,-2.47595 -3.77392,-0.37628 -7.6087,-0.13904 -11.41589,-0.18543 -4.67169,-0.0568 -6.55762,-3.15679 -4.35346,-7.40374 0.89276,-1.72016 2.20868,-3.22071 3.85364,-5.24439 10.17169,-2.16595 19.82184,-3.90875 29.47194,-5.65149 z"
     id="path12475"
     sodipodi:nodetypes="ccssscc" /><path
     fill="#d7e8fe"
     opacity="1"
     stroke="none"
     d="m 843.79934,438.57565 c 2.03637,-0.36001 4.38012,-0.50662 7.16674,-0.62408 -1.99133,0.29858 -4.42541,0.56805 -7.16674,0.62408 z"
     id="path12529"
     style="display:inline" /><path
     fill="#a1bdea"
     opacity="1"
     stroke="none"
     d="m 826.12893,372.28329 c 0.15417,0.65964 0.0446,1.55234 -0.2732,2.71308 -0.13562,-0.64795 -0.0631,-1.56397 0.2732,-2.71308 z"
     id="path12513" /><path
     fill="#a1bdea"
     opacity="1"
     stroke="none"
     d="m 858.44631,246.78018 c -0.0584,-0.39369 0.16565,-0.89758 0.61084,-1.57239 0.038,0.37346 -0.14514,0.91782 -0.61084,1.57239 z"
     id="path12517"
     style="display:inline" /><path
     fill="#a1bdea"
     opacity="1"
     stroke="none"
     d="m 825.03786,380.33627 c 0.20825,1.25135 0.177,2.80533 -0.0696,4.68299 -0.20032,-1.24436 -0.18506,-2.81235 0.0696,-4.68299 z"
     id="path12511" /><path
     fill="#a1bdea"
     opacity="1"
     stroke="none"
     d="m 824.94802,401.25229 c 0.26721,0.53467 0.36474,1.29825 0.38391,2.44324 -0.23682,-0.48383 -0.39514,-1.34906 -0.38391,-2.44324 z"
     id="path12515"
     style="display:none" /><path
     fill="#ced3e2"
     opacity="1"
     stroke="none"
     d="m 919.64479,436.81271 c -4.95495,0.21103 -9.63684,0.21924 -14.78564,0.22473 0.81641,-4.20459 2.68774,-8.33239 3.22888,-12.62774 0.62134,-4.93097 0.8512,-10.17169 -0.13659,-14.99359 -2.46216,-12.01883 -5.89002,-23.83634 -8.57715,-35.81388 -1.62317,-7.23498 -3.35767,-14.59024 -3.62183,-21.94247 -0.24597,-6.84372 1.02905,-13.82208 2.29395,-20.6185 1.37829,-7.40665 3.43066,-14.69431 5.3396,-21.99448 3.52929,-13.49749 7.22595,-26.95129 10.73852,-40.45303 1.87085,-7.19107 3.71375,-14.40173 5.18347,-21.68141 1.49146,-7.38661 2.33435,-14.90285 3.77161,-22.30205 2.31201,-11.90236 -5.60584,-27.66144 -17.04163,-31.24145 -14.13318,-4.42447 -28.12646,-10.01023 -43.40954,-9.3904 -0.99268,0.0402 -2.01807,-0.72299 -3.12744,-1.49757 18.72973,-0.40566 37.29504,2.10888 55.05713,8.12741 7.29797,2.47287 14.18164,7.4051 19.95092,12.65141 3.06616,2.78822 4.20044,8.54193 4.72046,13.12566 1.36353,12.01644 -1.12182,23.81883 -4.03638,35.39315 -5.12841,20.36594 -10.84301,40.58359 -16.08239,60.92246 -3.76734,14.62439 -7.44226,29.41919 -5.58802,44.64001 1.31104,10.76285 3.77259,21.41226 6.20398,32.00135 1.35999,5.92309 3.99451,11.54388 5.54432,17.43518 2.81189,10.68866 0.88501,20.68698 -5.62623,30.03521 z"
     id="path12379" /></g>






<g
   id="g631"
   inkscape:label="Tshirt"
   style="display:inline"><path
     fill="#0597F7"
     opacity="1"
     stroke="none"
     d="m 848.73684,183.76181 c 3.91369,2.46655 7.74255,4.52107 10.9176,7.31772 11.18225,9.84981 13.39648,22.59955 6.81763,38.48169 -2.0846,5.03254 -4.6626,9.86069 -7.32544,15.29992 -0.53467,1.02146 -0.75867,1.52535 -0.98267,2.02924 -0.12122,0.153 -0.24255,0.306 -0.73181,0.89833 -4.64234,7.08861 -8.91675,13.7379 -13.56104,20.96275 -3.24511,-3.45248 -5.80883,-6.18017 -8.53564,-9.1911 -6.06873,-4.37155 -11.97424,-8.4598 -18.02759,-12.84741 -1.3678,-1.28506 -2.58765,-2.27077 -3.94385,-3.36655 2.87354,-6.77917 5.72181,-13.49877 8.75452,-20.56405 1.84839,-6.42929 3.51221,-12.51291 5.20984,-18.95889 0.0513,-1.08988 0.0687,-1.81742 0.39844,-2.74338 0.85351,-1.58499 1.41589,-2.96379 1.93249,-4.3595 1.93311,-5.22244 3.8512,-10.45042 5.75501,-15.67316 -0.0198,0.003 0.001,0.0372 0.40893,0.10276 2.51306,0.15611 4.6189,0.24667 6.72461,0.33723 1.93469,0.73425 3.86939,1.46849 6.18897,2.2744 z"
     id="path12381"
     style="display:inline;fill:#0597f7;fill-opacity:1" /><path
     id="path12389"
     style="fill:#0597f7;fill-opacity:1"
     d="m 815.0571,176.16434 c -4.1411,4.34495 -8.2808,8.69004 -12.621,13.29492 0.82532,-0.72725 1.07319,-1.06878 -0.5274,0.34766 -2.2635,1.13664 -4.2002,2.18512 -6.1367,3.23437 -0.5544,0.38283 -1.1085,0.7656 -2.0078,1.08789 -0.3448,-0.0605 -0.2852,-0.0156 -0.2852,-0.0156 -1.8027,0.9498 -3.6048,1.89971 -5.7383,2.98633 -0.341,0.0541 -0.6532,0.0959 -0.9902,0.14844 -5.3196,0.13947 -10.47216,-0.51981 -15.47655,-4.13282 -2.27948,-1.66326 -3.97505,-2.64306 -6.19336,-4.04297 5.24478,4.18981 -0.061,-0.008 -4.35632,-5.35014 -2.95427,0.83575 -5.16794,1.45448 -7.98119,2.29189 -0.46836,0.0517 -0.30648,0.0694 -0.41279,0.0477 -3.44579,3.10211 -6.83614,6.16487 -10.01729,8.96956 0.0439,10.01996 0.0888,20.04029 0.0957,30.98633 0.40876,7.23743 0.85492,13.54996 1.30078,19.86132 1.12769,10.74095 2.2887,21.4771 3.32813,32.22657 0.10107,1.04556 -0.55377,2.16525 -0.84766,3.7539 0.36444,2.05417 0.71979,3.60401 1.07422,5.1543 0.0245,3.35095 0.0486,6.70203 0.0898,10.50391 2.56604,-0.27976 5.1142,-1.00925 7.91797,-1.99024 15.1838,-5.65118 10.03302,-2.69636 18.64258,-6.58203 4.56248,-2.21731 9.08678,-4.51676 13.18158,-6.82226 -1.8307,0.20524 -2.9706,-0.0661 -3.6738,-0.70704 -0.1741,-0.15863 -0.3192,-0.34253 -0.4434,-0.54492 0.1246,0.20238 0.2686,0.38718 0.4434,0.54492 0.701,0.63268 1.8363,0.892 3.6543,0.67188 0.4236,10e-4 0.3847,0.0703 0.3847,0.0703 0.1591,-0.28741 0.318,-0.57504 0.8926,-1.26172 3.9547,-5.58654 7.4942,-10.77213 10.9883,-16.33593 3.4277,-5.32635 6.8105,-11.02951 10.2402,-17.10547 3.5005,-8.18128 6.9541,-15.99101 10.6446,-24.03907 2.282,-6.52569 4.3269,-12.81021 6.7539,-19.52539 0.3995,-1.15689 0.4161,-1.88575 0.4336,-2.61328 -0.1486,-7.6066 3.8572,-13.66314 7.6992,-20.05664 0.2816,-0.17035 0.3027,-0.13672 0.3027,-0.13672 0,0 -0.098,-0.45611 -0.3182,-0.98242 -6.8272,-1.66304 -13.434,-2.80075 -20.0411,-3.9375 z"
     sodipodi:nodetypes="ccccccccccccccccsccccccscsccccccccccccc" /><path
     fill="#d7e8fe"
     opacity="1"
     stroke="none"
     d="m 742.15783,195.01258 c 0.2677,10.17386 0.24362,20.05977 0.2233,30.54379 -0.37745,-6.57649 -0.62891,-13.62058 -1.03388,-20.65584 -0.16345,-2.84059 -0.62288,-5.52319 -1.36097,-8.3569 0.47928,-0.50718 1.02093,-0.81125 2.17155,-1.53105 z"
     id="path12419"
     sodipodi:nodetypes="ccscc" /><path
     fill="#a1bdea"
     opacity="1"
     stroke="none"
     d="m 835.82326,181.15018 c -0.40747,-0.0656 -0.50415,-0.52286 -0.48901,-0.75556 2.30273,0.0345 4.59009,0.30171 7.04565,0.83084 -1.93774,0.17139 -4.04358,0.0808 -6.55664,-0.0753 z"
     id="path12427" /><path
     id="path12493"
     style="fill:#0597f7;fill-opacity:1"
     d="m 855.7759,254.42801 c -0.5964,0.74719 -1.1647,1.2457 -1.6948,2.12402 -1.1833,1.02414 -0.9363,1.95311 -1.7473,2.88869 -1.0123,1.57757 -3.1926,4.50732 -4.1236,7.15041 3.353,-6.60304 0.041,-1.99688 -1.1465,0.91964 -1.9046,0.67972 -3.448,2.07199 -5.4987,3.09107 -0.5674,0.31772 -0.8485,0.62042 -1.3477,1.14453 -0.1211,0.53455 -0.2053,0.79056 -0.6699,1.0586 -4.1468,5.22377 -8.0901,10.37833 -12.0996,15.86718 -0.034,0.13326 -0.063,0.23903 -0.098,0.3711 -4.237,4.81548 -8.4737,9.6314 -12.8281,14.76367 -2.3644,3.17802 -1.538,1.78569 -3.1661,4.19031 -1.1293,0.87238 -2.3124,1.94604 -3.7616,3.1593 -2.4792,2.26354 -4.3948,5.42744 -7.584,5.95117 -7.1409,1.39401 -13.8874,2.75086 -20.6328,4.10742 -9.99689,3.93358 -8.71968,4.0627 -0.4239,-0.0332 -10.81404,1.26477 -21.20341,2.56229 -31.57223,4.27734 0.0952,1.8057 -0.16278,3.55848 -0.0878,4.94687 0.7879,4.30762 3.81285,2.68794 8.1015,2.87931 8.96019,-0.0286 42.93073,-0.41028 49.69593,-0.36538 0.9845,5.18459 1.0711,15.21544 1.1085,18.86874 -2.5541,0.35564 -10.1204,0.20967 -13.0162,0.23509 -10.6079,0.43685 -15.93524,0.47943 -18.18361,0.58961 -0.49408,2.6986 1.5996,6.49394 -2.57117,6.43955 -5.70397,-0.0743 -11.82343,-0.50091 -17.89782,-0.48636 -0.36469,2.42236 0.0585,4.97532 0.4154,7.36332 5.68224,2.28427 10.87141,4.88454 16.36719,6.58007 6.63692,2.04759 12.48801,3.17466 18.29821,0.0261 8.0546,-0.92703 15.8707,-1.90507 24.305,-3.47385 3.1559,-6.08484 6.3175,-11.84391 8.8412,-17.8668 0.9105,-0.21326 6.5569,-2.43786 8.9279,-2.96658 1.3883,0.1568 2.9598,-0.42973 3.6999,-0.58026 2.5328,-0.50558 5.0655,-1.0105 8.459,-1.35547 2.7586,0.0384 4.6549,-0.0848 6.5527,-0.20703 l 1.168,0.14843 c 1e-4,-0.0364 0,-0.073 0,-0.10937 8.1236,0.034 15.8421,0.0352 24.3105,0.0352 -1.3537,-6.52133 -2.407,-11.84058 -3.5664,-17.13672 -3.8563,-17.61131 -7.7695,-35.20993 -11.6211,-52.82227 -1.1006,-5.03323 -2.0684,-10.09568 -3.0977,-15.14453 -0.5638,-2.06338 -1.127,-4.12742 -1.8105,-6.62891 z"
     sodipodi:nodetypes="cccccccccccccccccccccccsccscccccccccccsccc" /><path
     fill="#a1bdea"
     opacity="1"
     stroke="none"
     d="m 817.30788,246.71295 c -2.20117,0.31922 -4.55017,0.33907 -7.28906,0.36377 3.06347,-7.80331 6.51697,-15.61151 10.30884,-23.51422 0.7611,-0.20783 1.18371,-0.32112 1.60644,-0.43445 -2.84826,6.71958 -5.69653,13.43918 -8.57007,20.21835 1.3562,1.09578 2.57605,2.08149 3.94385,3.36655 z"
     id="path12557" /><path
     fill="#a1bdea"
     opacity="1"
     stroke="none"
     d="m 827.72683,201.08008 c -0.46094,-7.40817 3.54419,-13.46562 7.40612,-19.86231 -1.62243,5.05239 -3.54052,10.28037 -5.47363,15.50281 -0.5166,1.39571 -1.07898,2.77451 -1.93249,4.3595 z"
     id="path12559" /><path
     fill="#a1bdea"
     opacity="1"
     stroke="none"
     d="m 857.89113,260.93881 c -0.86889,-1.94519 -1.43274,-4.00857 -2.11621,-6.51007 -0.59643,0.74719 -1.04297,1.30661 -1.80835,2.35718 -0.54309,1.0242 -0.76733,1.55725 -0.99157,2.09033 -0.24549,0.15176 -0.42444,0.36044 -0.84925,1.04245 -1.54272,2.49884 -2.77331,4.58127 -4.0039,6.66367 -0.29407,0.13534 -0.53467,0.33511 -0.84913,0.79486 -1.89245,1.20047 -3.65734,2.20535 -5.70068,2.88714 -0.97107,-1.89224 -1.52856,-3.54043 -2.38953,-5.0108 -1.09997,-1.87833 -2.44482,-3.61316 -3.68396,-5.40991 2.56373,2.72763 5.12745,5.45532 8.37256,8.9078 4.64429,-7.22485 8.9187,-13.87414 13.44165,-20.69543 3.06787,4.01218 1.80652,8.39667 0.57837,12.88278 z"
     id="path12503" /><path
     fill="#1d9af2"
     opacity="1"
     stroke="none"
     d="m 862.39077,296.65781 c -0.90186,-1.71863 -1.81372,-3.83051 -2.72571,-5.94239 0.44543,-0.16687 0.89087,-0.33374 1.3363,-0.50061 0.45972,2.01657 0.91956,4.03314 1.38941,6.443 z"
     id="path12639" /><path
     fill="#1298F7"
     opacity="1"
     stroke="none"
     d="m 874.69289,372.61404 c -7.56518,0.68918 -14.93201,1.05823 -22.85596,1.03513 -8.41223,-1.48779 -16.26745,-2.58344 -24.1228,-3.67905 1.92627,-1.94711 3.58423,-5.13644 5.82642,-5.62076 8.55249,-1.84725 17.2688,-3.03372 25.97339,-4.03799 4.60119,-0.53082 9.33422,0.13229 13.95263,-0.31442 4.20923,-0.40714 6.14173,1.04983 6.41944,5.20678 0.1289,1.92988 0.68628,3.83115 1.13525,6.19809 -2.31287,0.33661 -4.22156,0.61435 -6.32837,1.21222 z"
     id="path12499"
     style="fill:#0597f7;fill-opacity:1" /><path
     fill="#b4c1e9"
     opacity="1"
     stroke="none"
     d="m 754.49388,358.8646 c -0.30201,2.69308 0.41652,4.76282 0.42312,7.04773 0,0 -0.0921,0.28283 -0.14933,0.34267 -0.99329,-1.71106 -2.06086,-3.56701 -3.04628,-5.9562 -0.0494,-0.61829 -0.49594,-1.47828 -0.49594,-1.47828 0.73124,-0.0191 2.60401,0.01 3.26843,0.0441 z"
     id="path12625"
     sodipodi:nodetypes="cccccc" /><path
     fill="#1d9af2"
     opacity="1"
     stroke="none"
     d="m 862.40065,297.48111 c 0.58558,1.96554 1.17102,4.36114 1.75635,6.75674 -0.45068,0.0658 -0.90149,0.13163 -1.35217,0.19742 -0.13477,-2.17468 -0.26953,-4.34939 -0.40418,-6.95416 z"
     id="path12641" /><path
     fill="#29A9E0"
     opacity="1"
     stroke="none"
     d="m 802.64675,316.34012 c 1.22803,-1.75971 2.70141,-3.2525 4.46814,-4.82135 0.19519,2.8761 0.82849,6.46783 -4.46814,4.82135 z"
     id="path12655"
     style="fill:#0597f7;fill-opacity:1" /><path
     fill="#b4c1e9"
     opacity="1"
     stroke="none"
     d="m 789.62661,372.50589 c 7.95062,-1.15985 15.90124,-2.3197 24.25586,-3.52106 0.28698,1.16172 0.16992,2.3649 -0.2118,3.8176 -0.76098,-0.35556 -1.31347,-1.52493 -1.74536,-1.482 -7.87011,0.78299 -16.08642,0.24329 -23.19769,5.62659 -0.33038,0.0966 -0.30298,0.11594 -0.30292,0.11594 -0.10467,-0.62735 -0.20935,-1.25467 -0.31408,-1.88199 -11.94507,2.92239 -22.00696,-2.96958 -32.48145,-6.93451 -0.15131,-0.0573 -0.328,-0.0477 -0.8551,-0.12546 -0.35016,-0.50049 -0.33795,-0.94485 -0.3086,-1.78015 0.0172,-0.39087 0.12738,-0.51468 0.47773,-0.41159 5.68225,2.28427 10.92974,4.71124 16.36877,6.58087 6.02032,2.06943 12.21234,2.67899 18.31464,-0.004 z"
     id="path12501" /><path
     fill="#a1bdea"
     opacity="1"
     stroke="none"
     d="m 827.41848,370.12363 c 8.151,0.9421 16.00622,2.03775 23.96679,3.51446 -7.96191,-0.34088 -16.02881,-1.0629 -24.54223,-1.69086 -0.20435,-0.49401 0.0378,-1.08203 0.57544,-1.8236 z"
     id="path12505" /><path
     fill="#b4c1e9"
     opacity="1"
     stroke="none"
     d="m 822.11855,222.78238 c -0.60718,0.459 -1.02979,0.57229 -1.55383,0.54025 1.94348,-6.43118 3.9884,-12.71698 6.38159,-19.06979 -1.31555,6.0166 -2.97937,12.10022 -4.82776,18.52954 z"
     id="path12561" /><path
     fill="#b4c1e9"
     opacity="1"
     stroke="none"
     d="m 743.7267,246.23154 c 1.10975,10.388 2.27161,21.12564 3.31104,31.87512 0.10107,1.04556 -0.55371,2.16424 -1.16638,3.47656 -0.65845,-0.12686 -1.00818,-0.48132 -1.41492,-1.02545 -0.23981,-5.48044 -0.48871,-10.76993 -0.58777,-16.06229 -0.11169,-5.96902 -0.0886,-11.94055 -0.14197,-18.26394 z"
     id="path12565" /><path
     fill="#d2e1f8"
     opacity="1"
     stroke="none"
     d="m 787.74099,197.10059 c -5.88544,0.34809 -11.25599,-0.22268 -16.17627,-3.84662 1.091,-0.0876 2.6087,-0.24228 3.63202,0.39576 5.7973,3.61498 11.60278,2.67151 17.88263,0.43453 -1.40223,0.97989 -3.2049,1.9297 -5.33838,3.01633 z"
     id="path12575"
     style="display:inline" /><path
     fill="#d2e1f8"
     opacity="1"
     stroke="none"
     d="m 795.42061,193.06271 c -0.20245,0.36183 -0.75689,0.74463 -1.65838,1.10453 0.20404,-0.37645 0.75525,-0.73 1.65838,-1.10453 z"
     id="path12577"
     style="display:inline" /><path
     fill="#0597F7"
     opacity="1"
     stroke="none"
     d="m 744.39943,280.3681 c -5.81805,-8.35278 -13.56915,-14.46393 -22.67035,-19.35739 -2.09936,-1.08938 -3.93158,-2.14056 -6.08093,-3.37366 5.58917,-16.2012 11.01251,-32.47569 16.88935,-48.58474 1.55712,-4.26818 4.50958,-8.02733 7.31115,-12.33197 0.83612,2.51831 1.33515,5.3396 1.4986,8.18019 0.40497,7.03526 0.65643,14.07934 0.99682,21.58191 0.47303,6.77339 0.91883,13.08477 1.38263,19.7491 0.0534,6.32339 0.0303,12.29492 0.14197,18.26394 0.0991,5.29236 0.34796,10.58185 0.53076,15.87262 z"
     id="path12393"
     style="fill:#0597f7;fill-opacity:1" /></g>



































































































<g
   id="g551"
   style="display:inline"
   inkscape:label="head and neck"><path
     fill="#454FD0"
     opacity="1"
     stroke="none"
     d="m 728.71535,108.17697 c -6.04785,-1.96099 -12.01611,-4.01755 -15.93713,-9.564062 -4.61414,-6.527085 -1.8252,-14.148148 5.97912,-15.54844 3.15882,-0.56678 4.29267,-1.844642 4.85273,-5.05046 2.2337,-12.786156 13.22082,-19.130501 25.37957,-14.460244 7.57276,2.908753 14.29834,3.232781 21.93531,-0.553855 8.96783,-4.446526 18.68475,-4.727761 27.68011,0.912994 5.47528,3.433487 6.81635,7.77903 3.95917,13.607155 -2.28894,4.669029 -1.29022,8.301437 2.26037,11.630928 0.60645,0.568641 1.25281,1.094536 1.87391,1.647713 10.31872,9.188652 10.55969,11.154911 6.08715,24.213601 -1.3269,3.87445 -1.28308,8.47122 -0.84094,12.62785 0.44458,4.18161 -0.0738,7.19635 -4.17859,8.95656 -2.91003,1.24794 -4.03833,3.3403 -2.76684,6.41411 1.31176,3.17093 2.53979,6.38562 -0.71424,9.12237 -3.20678,2.69707 -6.72522,2.373 -10.78765,0.24759 -2.28779,-4.57116 -4.71113,-8.59581 -5.52717,-12.92355 -0.32592,-1.72821 2.99805,-4.05608 4.46766,-6.24074 1.09857,-1.63302 2.52551,-3.42869 2.65405,-5.23399 0.16205,-2.27613 -0.17389,-5.28043 -1.57544,-6.74629 -1.0387,-1.08629 -4.11981,-0.2197 -6.68768,-0.21692 -5.2569,0.33712 -6.52356,-3.36868 -7.76307,-6.17496 -1.54638,0.40549 -2.97308,0.77962 -4.66375,1.06346 -0.50543,-0.36344 -0.74689,-0.6366 -1.03858,-1.22897 -1.35974,-0.71681 -2.66925,-1.11441 -4.3659,-1.57529 -3.13263,-0.6925 -5.8479,-1.60567 -8.62879,-1.90047 -10.53961,-1.11726 -21.10046,-2.03421 -31.65338,-3.02609 z"
     id="path12377"
     style="fill:#502d16;fill-opacity:1" /><path
     id="path12387"
     style="fill:#502d16;fill-opacity:1"
     d="m 780.4927,128.95536 c -5.2359,7.80021 -10.10371,15.68334 -14.86328,23.63086 -3.82239,6.38256 -6.84205,7.76692 -14.45508,6.67382 -7.36804,-1.05792 -14.96162,-1.45157 -20.41406,-7.88086 -1.3479,5.09779 -2.56843,9.86457 -3.05665,14.70508 -0.22833,2.2639 0.27656,5.20791 1.625,6.91797 5.84192,7.40798 12.55788,13.68848 23.0586,13.02149 0,0 -0.0461,0.0175 -0.0371,0.0371 2.61773,-0.71196 5.22632,-1.44356 8.1875,-2.28125 3.12646,-1.41585 6.3299,-2.22306 8.57617,-4.14844 3.74737,-3.21197 6.5046,-8.09493 9.94319,-12.06664 2.14979,-1.87982 0.95812,1.93479 3.79512,-15.39039 0.342,-1.5114 0.4597,-2.90889 0.539,-4.72852 -0.346,-4.99947 -0.5554,-9.58883 -1.0156,-14.15234 -0.1456,-1.44383 -0.9598,-2.82022 -1.8828,-4.33789 z"
     sodipodi:nodetypes="ssscsccccscccsss" /><path
     fill="#f9b2bb"
     opacity="1"
     stroke="none"
     d="m 814.72268,176.11119 c -3.80628,4.39825 -7.94727,8.74318 -12.61451,13.43547 -2.46264,1.39658 -4.3991,2.4458 -6.68756,3.51602 -0.90313,0.37456 -1.45434,0.72811 -2.00323,1.04404 0.002,-0.0376 0.0625,0.008 -0.33801,-0.0225 -6.27985,2.237 -12.08533,3.18047 -17.88263,-0.43451 -1.02332,-0.63804 -2.54102,-0.48332 -4.12183,-0.83343 -2.08112,-1.36435 -3.87073,-2.58995 -5.79462,-4.12358 -1.55316,-1.87828 -2.97192,-3.44853 -4.39074,-5.01874 2.77404,-1.30974 5.97882,-2.11691 8.22509,-4.0423 3.74738,-3.21197 6.42872,-8.50882 10.35171,-12.77885 1.4403,-5.36326 2.36523,-9.57267 3.41199,-14.76115 0.16264,-1.53149 0.25049,-2.77626 0.53144,-4.95212 0.11204,-5.9173 0.32492,-11.0461 0.92123,-16.08345 0.40418,-3.41402 1.89148,-6.6998 2.89435,-10.04294 2.17133,0.003 5.25244,-0.86325 6.29114,0.22304 1.40155,1.46586 1.73749,4.47016 1.57544,6.74629 -0.12854,1.8053 -1.55548,3.60097 -2.65405,5.23399 -1.46961,2.18466 -4.79358,4.51253 -4.46766,6.24074 0.81604,4.32774 3.23938,8.35239 5.13782,12.76091 4.1015,9.72403 8.17975,19.09474 19.18714,22.56854 0.75598,0.23859 1.39782,0.83904 2.42749,1.32451 z"
     id="path12391"
     sodipodi:nodetypes="sccccscccscccscsssscsss" /><path
     fill="#f5aeba"
     opacity="1"
     stroke="none"
     d="m 780.37953,129.06405 c -4.8211,7.91064 -9.99108,15.5739 -14.75067,23.52143 -3.82238,6.38257 -6.8421,7.76787 -14.45513,6.67477 -7.36805,-1.05792 -14.96027,-1.45239 -20.30603,-8.28592 -0.38837,-2.42865 -0.45685,-4.75409 -0.18818,-7.65051 3.43665,-1.63988 6.53626,-2.70874 9.65607,-3.34881 -1.16943,7.06387 -0.77814,7.34417 7.62109,5.87371 -4.51641,-5.81291 -4.76434,-7.90724 -1.34082,-12.5298 2.64209,6.36119 6.84479,9.41266 12.50422,9.25205 4.92291,-0.13968 10.62072,-3.74767 10.92382,-8.49718 0.46064,-7.21767 5.38666,-7.29654 10.55152,-8.64815 -0.22895,1.51175 -0.0714,2.68476 -0.21589,3.63841 z"
     id="path12397"
     sodipodi:nodetypes="csscccccsscc" /><path
     fill="#6750D1"
     opacity="1"
     stroke="none"
     d="m 780.49233,128.95511 c -0.27033,-1.06406 -0.12586,-2.01772 0.10309,-3.52947 -5.16486,1.35161 -10.09088,1.43048 -10.55152,8.64815 -0.3031,4.74951 -6.00091,8.3575 -10.92382,8.49718 -5.65943,0.16061 -9.86213,-2.89086 -12.48932,-9.58757 -0.23139,-1.08046 -0.29969,-1.52294 -0.31006,-2.35268 0.65808,-2.85277 1.25824,-5.31825 2.07867,-8.68828 -2.34991,0.26554 -4.1629,0.47042 -5.84576,0.66057 0.69385,3.3813 1.21472,5.91922 1.6394,8.79665 -1.35663,2.94186 -2.61712,5.54423 -3.87768,8.14657 -3.09955,1.06885 -6.19916,2.13771 -9.61658,3.26542 -10.20801,-3.51053 -14.03363,-11.24604 -9.18713,-18.72448 1.48742,-2.29515 4.4035,-3.66446 7.35522,-5.65364 2.96222,0.10159 5.2265,0.51681 7.50861,0.67269 5.18725,0.35436 10.92462,2.1212 15.45855,0.52699 8.43689,-2.96651 14.06263,-0.75726 18.79126,6.15309 3.54419,-1.2524 6.88318,-2.43225 10.84943,-3.8338 -2.64716,-2.31503 -4.72791,-4.13474 -6.80872,-5.95444 1.4267,-0.37411 2.8534,-0.74824 4.39978,-1.15373 1.23951,2.80628 2.50617,6.51208 7.76307,6.17496 -0.60633,3.33702 -2.09363,6.6228 -2.49781,10.03682 -0.59631,5.03735 -0.42181,10.16595 -0.77728,15.61195 -0.78015,-4.28713 -0.71838,-8.81151 -1.17853,-13.37503 -0.14563,-1.44383 -0.9599,-2.82024 -1.88287,-4.33792 m -52.77069,-7.54106 c -4.03888,2.39261 -6.198,5.78293 -5.40845,10.59922 0.67621,4.12545 3.14911,6.68406 7.96533,7.94913 4.22052,0.52617 7.48371,-1.13862 9.72382,-4.61378 2.18127,-3.38394 2.28308,-7.03652 -0.13525,-10.29756 -2.85462,-3.84929 -6.81501,-5.07787 -12.14545,-3.63701 m 38.64514,2.9619 c -2.96301,-3.84049 -7.23553,-4.76773 -11.10828,-2.88004 -2.57861,1.25688 -5.00042,4.43726 -5.85687,7.25401 -1.32141,4.3458 0.76209,8.07775 5.05383,10.22232 4.08979,2.04367 7.84162,1.31672 10.94507,-1.77858 3.60352,-3.59402 3.9607,-7.81068 0.96625,-12.81771 z"
     id="path12405"
     style="fill:#d16a50;fill-opacity:1"
     sodipodi:nodetypes="ccsscccccccscsscccccscsccscssccssssc" /><path
     fill="#544ED1"
     opacity="1"
     stroke="none"
     d="m 728.35775,114.06033 c 3.90271,-0.83786 7.50818,-1.94449 10.98797,-0.76771 -0.005,0.50273 -0.009,1.00546 -0.014,1.50819 -3.78907,0.44985 -7.57807,0.8997 -11.68634,1.50354 -1.0448,0.37084 -1.77045,0.58766 -2.49604,0.8045 -0.1618,-0.32034 -0.32361,-0.64067 -0.48541,-0.961 1.12469,-0.64903 2.24939,-1.29807 3.69379,-2.08752 z"
     id="path12421"
     style="fill:#7f2900;fill-opacity:0.756863" /><path
     fill="#E5A3AF"
     opacity="1"
     stroke="none"
     d="m 746.26278,131.018 c 0.0683,0.44246 0.13659,0.88494 0.18988,1.66294 -3.26032,5.26054 -3.01239,7.35487 1.50402,13.16778 -8.39923,1.47046 -8.79052,1.19016 -7.62109,-5.87368 1.2403,-3.03115 2.50079,-5.63352 4.18701,-8.583 0.86389,-0.35609 1.30207,-0.36506 1.74018,-0.37404 z"
     id="path12581"
     style="fill:#d99ca6;fill-opacity:1" /><path
     fill="#F5AEBA"
     opacity="1"
     stroke="none"
     d="m 766.57692,124.66804 c 2.78431,4.71494 2.42713,8.9316 -1.17639,12.52562 -3.10345,3.0953 -6.85528,3.82225 -10.94507,1.77858 -4.29174,-2.14457 -6.37524,-5.87652 -5.05383,-10.22232 0.85645,-2.81675 3.27826,-5.99713 5.85687,-7.25401 3.87275,-1.88769 8.14527,-0.96045 11.31842,3.17213 z"
     id="path12585"
     style="fill:#f5aeba;fill-opacity:1" /><path
     fill="#f5aeba"
     opacity="1"
     stroke="none"
     d="m 774.402,115.90778 c 2.34478,1.90998 4.42553,3.72969 7.07269,6.04472 -3.96625,1.40155 -7.30524,2.5814 -10.84943,3.8338 -4.72863,-6.91035 -10.35437,-9.1196 -18.79126,-6.15309 -4.53393,1.59421 -10.2713,-0.17263 -15.45855,-0.52699 -2.28211,-0.15588 -4.54639,-0.5711 -7.2038,-0.85822 -0.67511,-0.42042 -0.96527,-0.85122 -1.2312,-1.68983 3.81323,-0.85766 7.60223,-1.30751 11.3913,-1.75736 0.005,-0.50273 0.009,-1.00546 0.014,-1.50819 -3.47979,-1.17678 -7.08526,-0.0701 -10.66827,0.62728 0.0538,-1.71417 0.1076,-3.42834 0.0997,-5.44272 10.49115,0.69167 21.052,1.60862 31.59161,2.72588 2.78089,0.2948 5.49616,1.20797 8.83576,2.14647 1.79919,0.7557 3.00415,1.2021 4.20916,1.6485 0.24146,0.27316 0.48292,0.54632 0.98835,0.90975 m -16.36475,0.0646 c 4.19513,0.99976 8.3902,1.99952 12.58533,2.99927 0.17535,-0.51719 0.35071,-1.03439 0.52606,-1.55159 -4.50201,-1.64293 -8.9743,-3.37944 -13.53693,-4.83191 -0.71692,-0.22823 -1.84375,0.83135 -2.78106,1.29547 0.80041,0.70296 1.60083,1.40591 3.2066,2.08876 z"
     id="path12409" /><path
     fill="#f9b2bb"
     opacity="1"
     stroke="none"
     d="m 728.38112,121.30257 c 4.67096,-1.32938 8.63135,-0.1008 11.48597,3.74849 2.41833,3.26104 2.31652,6.91362 0.13525,10.29756 -2.24011,3.47516 -5.5033,5.13995 -10.1499,4.07988 -0.77454,-6.39792 -1.12293,-12.26192 -1.47132,-18.12593 z"
     id="path12587" /><path
     fill="#f5aeba"
     opacity="1"
     stroke="none"
     d="m 746.3207,130.63072 c -0.49603,0.39626 -0.93421,0.40523 -1.70191,0.42183 -0.85046,-2.53032 -1.37133,-5.06824 -2.06518,-8.44954 1.68286,-0.19015 3.49585,-0.39503 5.84576,-0.66057 -0.82043,3.37003 -1.42059,5.83551 -2.07867,8.68828 z"
     id="path12591" /><path
     style="fill:#000000;fill-opacity:1"
     id="path10898"
     sodipodi:type="arc"
     sodipodi:cx="734.52966"
     sodipodi:cy="128.60616"
     sodipodi:rx="0.62800086"
     sodipodi:ry="0.73856944"
     sodipodi:start="2.6946976"
     sodipodi:end="2.6946172"
     sodipodi:arc-type="slice"
     d="m 733.96334,128.92534 a 0.62800086,0.73856944 0 0 1 0.29491,-0.98522 0.62800086,0.73856944 0 0 1 0.83773,0.34682 0.62800086,0.73856944 0 0 1 -0.29488,0.98523 0.62800086,0.73856944 0 0 1 -0.83774,-0.34678 l 0.5663,-0.31923 z" /><path
     style="fill:#000000;fill-opacity:1"
     id="path10898-3"
     sodipodi:type="arc"
     sodipodi:cx="758.97333"
     sodipodi:cy="129.37988"
     sodipodi:rx="0.62800086"
     sodipodi:ry="0.73856944"
     sodipodi:start="2.6946976"
     sodipodi:end="2.6946172"
     sodipodi:arc-type="slice"
     d="m 758.407,129.69907 a 0.62800086,0.73856944 0 0 1 0.29491,-0.98522 0.62800086,0.73856944 0 0 1 0.83773,0.34682 0.62800086,0.73856944 0 0 1 -0.29488,0.98523 0.62800086,0.73856944 0 0 1 -0.83774,-0.34678 l 0.56631,-0.31924 z" /><path
     fill="#6750D1"
     opacity="1"
     stroke="none"
     d="m 757.6346,115.98244 c -1.20312,-0.6929 -2.00354,-1.39585 -2.80395,-2.09882 0.93731,-0.46411 2.06414,-1.52369 2.78106,-1.29546 4.56263,1.45247 9.03492,3.18898 13.53693,4.83191 -0.17535,0.5172 -0.35071,1.0344 -0.52606,1.55159 -4.19513,-0.99975 -8.3902,-1.99951 -12.98798,-2.98922 z"
     id="path12593"
     style="fill:#7f2900;fill-opacity:0.756863" /><path
     fill="#E8EDF8"
     opacity="1.000000"
     stroke="none"
     d="m 728.05141,121.35831 c 0.6781,5.80827 1.02649,11.67227 1.41309,17.96267 -4.0022,-0.62365 -6.4751,-3.18226 -7.15131,-7.30771 -0.78955,-4.81629 1.36957,-8.20661 5.73822,-10.65496 z"
     id="path12589"
     style="display:none;opacity:0;fill:#ffffff" /></g>







<g
   id="g690"
   inkscape:label="Hands and feet"
   style="display:inline"><path
     fill="#e5a3af"
     opacity="1"
     stroke="none"
     d="m 635.3207,325.5672 c -12.43067,-0.19498 -24.8855,0.0143 -37.28351,-0.72711 -8.2569,-0.49375 -14.00537,-6.75281 -15.45453,-15.35764 3.69855,-0.51895 7.46222,-1.22793 11.02069,-0.65744 5.20978,0.83521 10.20746,3.1705 15.41992,3.7533 3.77417,0.42199 7.77539,-0.83066 11.63251,-1.56226 26.29999,-4.98822 52.06152,-11.9107 76.66168,-22.57593 3.51392,-1.52343 6.60089,-4.89087 8.92615,-8.09994 3.68646,-5.08765 6.42688,-10.85101 9.87317,-16.12894 0.92902,-1.42279 2.96063,-2.12561 5.18274,-3.16061 9.53076,4.85354 17.28186,10.96469 23.15692,19.50714 0.40674,0.54413 0.75647,0.89859 1.42505,1.52936 0.6731,1.8266 1.02753,3.37689 1.05701,4.99765 -4.0738,4.69937 -7.82257,9.32828 -11.94336,14.00296 -3.36243,1.00818 -6.30213,2.19436 -9.35382,2.88595 -6.22492,1.4108 -12.5929,2.24573 -18.74842,3.89188 -6.85193,1.83243 -13.48907,3.0614 -20.45294,0.44644 -3.54352,-1.3306 -7.34656,-2.08703 -11.09784,-2.70514 -2.37909,-0.39203 -5.03644,-0.59057 -7.29278,0.0689 -5.1756,1.51276 -10.08735,3.94663 -15.27893,5.38181 -8.10914,2.2417 -13.20905,7.78256 -17.44971,14.50958 z"
     id="path12383" /><path
     fill="#232727"
     opacity="1"
     stroke="none"
     d="m 732.25905,646.20712 c 0.0599,0.70954 0.11988,1.41907 0.25342,2.47711 0.0735,4.15412 0.0735,7.95972 0.0735,12.15998 -12.56873,0.67505 -24.75342,1.70129 -36.94922,1.8565 -8.4256,0.1073 -16.86688,-0.98474 -25.30011,-1.5556 -0.66052,-0.0447 -1.46838,0.003 -1.94281,-0.34875 -2.16687,-1.60828 -4.23914,-3.344 -6.3454,-5.03394 2.17944,-1.20355 4.23261,-2.8634 6.56641,-3.50903 3.98517,-1.1023 8.14636,-1.56836 12.57397,-2.47663 9.40698,-2.61578 18.47357,-5.05664 28.27857,-7.44745 8.08947,1.32593 15.44055,2.60187 22.79162,3.87781 z"
     id="path12473" /><path
     fill="#e5a3af"
     opacity="1"
     stroke="none"
     d="m 645.90773,325.72311 c 1.98645,-6.39071 7.82081,-6.79611 13.16736,-7.55343 3.42749,-0.48554 6.87891,-0.64612 10.03815,2.34985 2.32745,2.20715 5.97095,3.02652 9.10968,4.76703 -10.56531,0.38132 -21.21234,0.4599 -32.31519,0.43655 z"
     id="path12541" /><path
     fill="#232727"
     opacity="1"
     stroke="none"
     d="m 803.58376,643.45578 c -1.80463,-5.36615 -3.52295,-10.91504 -4.68713,-16.57776 -0.20765,-1.00964 1.88269,-2.4917 3.63415,-3.9361 8.13489,-0.94958 15.54785,-1.71881 22.96069,-2.48797 1.40638,4.53595 2.81287,9.0719 4.31226,13.90777 -8.89893,3.04322 -17.42175,5.95783 -26.21997,9.09406 z"
     id="path12525" /><path
     fill="#f5aeba"
     opacity="1"
     stroke="none"
     d="m 825.48195,620.10727 c -7.40332,1.11584 -14.81628,1.88507 -22.65088,2.61865 -0.73663,-2.71295 -1.05145,-5.39038 -1.39947,-8.48303 5.70209,-3.62781 11.43744,-6.84039 17.50421,-10.11603 2.39978,5.16919 4.46814,10.40149 6.54614,15.98041 z"
     id="path12527" /><path
     fill="#fbb2b9"
     opacity="1"
     stroke="none"
     d="m 835.33535,259.56039 c 1.40234,2.08002 2.74719,3.81485 3.84716,5.69318 0.86097,1.47037 1.41846,3.11856 2.10376,5.02499 -0.28894,0.64081 -0.5708,0.94437 -1.24304,1.56314 -0.59204,0.51218 -0.69482,0.75174 -0.69836,1.03388 -3.94385,5.1539 -7.88758,10.30783 -11.8971,15.79669 -4.31298,5.16214 -8.5603,9.98938 -13.19873,15.28217 -1.24926,1.6029 -2.1073,2.74023 -2.96545,3.87756 -1.16809,1.01276 -2.33618,2.02551 -3.98303,3.40051 -1.9524,1.85511 -3.42578,3.3479 -4.89917,4.84073 -0.55194,0.16977 -1.10389,0.33954 -2.22144,0.79053 -7.31116,1.63779 -14.05664,2.99438 -21.22717,4.31799 -10.81409,1.26477 -21.20319,2.5625 -32.05402,3.84531 -13.51568,0.67892 -26.56347,1.5675 -39.6264,1.97568 -5.61328,0.17544 -11.25769,-0.64612 -16.888,-1.01474 -3.72376,-0.0624 -7.44757,-0.12485 -11.70722,-0.59571 -3.59295,-1.84625 -7.23645,-2.66562 -9.5639,-4.87277 -3.15924,-2.99597 -6.61066,-2.83539 -10.03815,-2.34985 -5.34655,0.75732 -11.18091,1.16272 -13.62323,7.45147 -3.07513,0.0672 -6.1502,0.13443 -9.67828,0.0738 3.78778,-6.8548 8.88769,-12.39566 16.99683,-14.63736 5.19158,-1.43518 10.10333,-3.86905 15.27893,-5.38181 2.25634,-0.65951 4.91369,-0.46097 7.29278,-0.0689 3.75128,0.61811 7.55432,1.37454 11.09784,2.70514 6.96387,2.61496 13.60101,1.38599 20.45294,-0.44644 6.15552,-1.64615 12.5235,-2.48108 18.74842,-3.89188 3.05169,-0.69159 5.99139,-1.87777 9.60412,-2.67178 4.45654,-0.99875 8.29077,-2.16586 12.12494,-3.33295 2.54932,-0.73065 5.09863,-1.46133 8.28314,-2.4602 5.03333,-1.93802 9.43146,-3.60776 14.21167,-5.27851 1.60828,-0.4216 2.89307,-0.72161 4.05036,-1.28399 4.5625,-2.21732 9.08502,-4.51706 13.60351,-6.82135 -0.0188,-0.0352 -0.0582,0.0342 0.18421,-0.065 0.38379,-0.40525 0.52514,-0.71134 0.86621,-1.28956 3.73877,-5.45935 7.27783,-10.64663 10.81689,-15.83392 3.38281,-5.70288 6.76563,-11.40576 10.58545,-17.4866 2.78589,-0.39781 5.13489,-0.41766 7.48377,-0.43753 5.90564,4.08826 11.81115,8.17651 17.87976,12.54809 z"
     id="path12533" /><path
     fill="#f5aeba"
     opacity="1"
     stroke="none"
     d="m 710.42006,634.17581 c 6.31183,-0.76941 12.65808,-1.16662 19.34693,-1.58942 1.08392,4.23853 1.82538,8.50263 2.52942,13.19373 -7.38843,-0.84894 -14.73951,-2.12488 -22.44104,-3.53912 -0.0339,-2.6565 0.28265,-5.17475 0.56469,-8.06519 z"
     id="path12609"
     style="display:inline" /><path
     fill="#232727"
     opacity="1"
     stroke="none"
     d="m 795.3807,646.44498 c -9.7605,2.0459 -19.41065,3.7887 -29.51142,5.60632 -1.94836,-0.81549 -3.4461,-1.70593 -5.20556,-2.7948 1.23181,-5.55828 6.89612,-5.03161 10.52197,-7.9718 6.80872,-3.9519 12.48171,-6.77934 20.05711,-10.99199 1.1407,5.71961 3.1545,10.36492 4.1379,16.15227 z"
     id="path12477"
     sodipodi:nodetypes="cccccc" /></g>






<g
   id="g1058"
   style="display:inline;fill:#564fd1;fill-opacity:1"
   transform="translate(-221.5991,-7.9489441)"
   inkscape:label="pants"><path
     fill="#444ed0"
     opacity="1"
     stroke="none"
     d="m 1065.0909,446.31115 c -2.4022,0.006 -4.8043,0.0113 -7.6456,0.11264 -7.9842,0.24152 -7.9191,0.23688 -8.4569,-7.32846 -0.6204,-8.72577 -1.3706,-17.44232 -2.0217,-26.99756 -0.055,-1.59829 -0.1524,-2.36187 -0.2502,-3.12545 -0.1174,-4.94239 -0.2348,-9.8848 -0.143,-15.57749 0.2405,-2.30429 0.2717,-3.85827 0.3028,-5.41229 0.1001,-1.32489 0.2002,-2.64981 0.5434,-4.63998 0.3529,-1.55799 0.4625,-2.45069 0.5722,-3.34339 0,0 0.01,8.3e-4 0.4524,-0.0981 8.5113,0.62307 16.5782,1.34509 25.097,2.07815 7.8187,-0.358 15.1855,-0.72705 22.5525,-1.09613 1.797,0.10852 3.5939,0.21704 5.8779,0.35495 3.3124,16.18561 5.9451,32.19568 -0.9823,48.15082 -3.6204,8.3385 -9.3401,13.91083 -19.0477,15.19556 -2.9624,0.46216 -5.59,0.73044 -9.0184,1.14282 -3.1447,0.29074 -5.4885,0.43735 -7.8324,0.58392 z"
     id="path12491" /><path
     fill="#444ed0"
     opacity="1"
     stroke="none"
     d="m 943.73389,396.73508 c 2.5039,-1.57706 3.98775,-2.43418 6.86965,-4.12867 1.13324,4.60544 2.43338,8.50372 3.55189,13.10306 -9.50413,6.61595 -3.73315,2.66628 -11.81372,7.98312 -0.60075,0.40479 -11.72604,8.79979 -12.34538,9.33815 -0.36962,0.32129 -0.62356,0.88851 -0.75325,1.90319 -0.0537,0.42 -0.27505,1.59854 -0.29416,2.32678 -0.16435,6.26303 1.48819,12.2748 2.53032,18.18645 -12.02892,0.14782 -12.51114,3.3254 -11.49053,18.90211 1.42519,5.98804 2.6821,11.51199 4.05927,16.48612 1.59849,5.77353 2.26033,10.56042 3.48793,16.03891 8.66827,38.68503 17.30768,77.37655 26.00195,116.05581 1.19849,5.33222 2.60315,10.61982 3.99274,15.90699 2.12097,8.06982 2.15082,8.06201 -5.83368,11.48077 -7.01965,0.64026 -13.36591,1.03748 -19.71222,1.43469 -6.9624,-1.0672 -9.89508,-5.25134 -11.65472,-12.07202 -12.05146,-46.71326 -24.44953,-93.33899 -32.67548,-140.9295 -1.64087,-9.49314 -2.43872,-19.13217 -3.61853,-28.70478 -1.15405,-9.36309 2.5957,-16.71243 9.01788,-23.24984 15.13758,-15.4094 32.83625,-27.52698 50.68006,-40.06134 z"
     id="path12607"
     sodipodi:nodetypes="ccccsssccssssccsssscc" /><path
     id="path12613"
     d="m 954.22266,405.9707 c -4.44863,3.10114 -6.85324,4.67354 -11.8674,8.01724 -2.37432,1.44899 -8.63281,6.34219 -12.23772,9.30911 -0.2976,0.5416 -0.95508,-0.70619 -1.01598,5.02912 -0.0613,5.77687 1.71988,11.71204 2.67969,17.47071 1.77124,4.33149 13.40201,31.1882 15.35156,35.17578 0.91632,1.57466 1.83253,3.1496 2.69531,5.41211 0.27018,1.3032 0.59889,1.96897 1.2754,2.62304 -0.0255,-0.003 -0.0507,-0.009 -0.0762,-0.0117 10.7954,22.99406 22.12836,46.1 33.3125,68.72071 3.51709,7.11345 7.128,14.18017 10.99024,21.44336 1.198,1.32793 2.10041,2.48163 3.0039,3.63476 0.77589,0.125 -0.44323,-3.58216 -0.79882,-4.99219 -7.48249,-29.67051 -14.59566,-58.17511 -22.1543,-87.82617 -0.29291,-1.14902 -0.8403,-2.88183 -1.31445,-4.12109 l -0.10352,-0.10352 c 0.045,-0.10241 0.0937,-0.19966 0.13672,-0.30468 -2.33789,-10.4254 -4.70874,-20.44271 -7.08008,-30.45899 -1.5268,-5.1354 -6.48622,-26.69057 -12.79687,-49.01758 z m 2.96289,87.11133 c 0.72858,0.0522 1.09051,0.48517 1.40429,0.95117 0.0139,0.0206 -0.4096,0.33607 -0.6289,0.51368 -0.2586,-0.48822 -0.51672,-0.97666 -0.77539,-1.46485 z"
     style="fill:#564fd1;fill-opacity:1"
     sodipodi:nodetypes="cccscccccsccssccccccsccs" /><path
     style="fill:#d9d9d9;fill-opacity:1"
     d="m 745.28814,392.7022 27.6885,-17.64607 -0.56005,-0.32477 -27.4805,17.79529 z"
     id="path4127"
     transform="translate(221.5991,7.9489441)" /><path
     id="path12489"
     d="m 976.91016,376.16797 c -0.16,0.014 -0.39753,0.0539 -0.78516,0.12891 -3.99689,2.26403 -7.52247,4.17133 -10.69531,6.54882 -1.156,0.86618 -2.87325,1.47979 -2.59375,2.75586 4.66926,21.31753 10.26496,42.79229 15.18554,63.40039 h 0.002 c 7.45734,13.34715 -2.17674,-5.72557 -0.0762,0.40821 2.74513,12.11293 28.19772,125.84645 32.83392,143.60742 2.0635,8.69872 4.4349,17.32685 6.754,25.96289 0.7503,2.79357 2.6215,3.85754 5.4628,2.79687 5.7352,-3.21257 11.4699,-6.42682 17.8653,-9.87304 6.0003,-2.55023 1.103,-6.36378 1.9922,-9.33203 -0.3677,-0.90589 -0.7353,-1.8133 -1.3692,-3.32813 -5.5775,-19.90577 -12.217,-40.67206 -17.4414,-57.7832 -9.3745,-28.36335 -18.6215,-61.51833 -26.90815,-86.37109 1.76292,-2.48368 2.7534,-4.28412 4.46675,-4.6582 5.8728,-1.28211 11.8884,-1.91421 18.2637,-2.95898 3.7051,-0.36081 6.9962,-0.55511 10.8144,-0.78125 0,-6.00378 -0.3726,-11.81449 0.07,-17.5625 1.2372,-16.05669 2.8125,-32.08797 4.2539,-48.12891 -0.4963,-0.60504 -1.0506,-1.77337 -1.4825,-1.73047 -7.8701,0.78299 -16.0852,0.24354 -23.207,5.61328 -0.4284,0.13868 -0.5153,0.19446 -0.4473,0.18946 0.05,-0.68765 -0.055,-1.31409 -0.1601,-1.94141 -11.94502,2.9224 -22.00597,-2.97061 -32.48045,-6.93555 -0.0757,-0.0286 -0.15837,-0.0413 -0.31836,-0.0273 z"
     style="fill:#564fd1;fill-opacity:1"
     sodipodi:nodetypes="ccssccccsccccccsccccccccssc" /></g>







































<g
   id="g1670"
   inkscape:label="Laptop"
   transform="translate(-221.5991,-7.9489441)"
   style="display:inline"><path
     fill="#FEFEFE"
     opacity="1"
     stroke="none"
     d="m 733.27461,333.35343 c -3.85834,-10.13242 -7.8515,-20.21607 -11.53973,-30.41003 -4.30799,-11.90714 -8.27521,-23.93723 -12.5423,-35.85959 -1.82038,-5.086 -4.0412,-10.02799 -6.047,-15.04862 -0.67102,-1.67946 -1.52801,-3.3557 -1.79706,-5.11053 -0.66479,-4.33562 0.42176,-7.64405 5.63691,-7.96381 1.80822,-0.11087 3.60516,-0.57188 5.40801,-0.57648 17.64911,-0.0449 35.29841,-0.0396 52.94764,-0.0212 7.46692,0.008 10.04956,2.37631 12.1087,9.43967 1.51752,5.20542 3.96967,10.132 5.8653,15.23484 4.87573,13.12509 9.75775,26.24912 14.45324,39.43912 1.48566,4.17334 2.30304,8.58103 3.63416,12.8161 0.26416,0.84046 1.47803,1.38239 2.64062,2.46857 1.86243,8.62942 7.61091,14.88849 15.8678,15.38223 12.39801,0.74137 24.85285,0.53214 37.73639,0.85489 3.52808,0.0606 6.60315,-0.007 10.13416,0.0281 11.10284,0.0233 21.74987,-0.0552 32.85107,-0.0281 4.17798,0.16812 7.9018,0.23056 11.84265,0.59845 0.73926,2.42633 1.26129,4.54724 1.33637,6.7146 -3.1377,0.12573 -5.82831,0.20496 -8.98383,0.20844 -10.83301,-0.0223 -21.20123,0.0313 -31.94495,0.032 -1.13153,-0.0235 -1.88763,0.006 -3.06482,-0.0401 -2.13488,-0.0267 -3.84863,0.0216 -5.93066,0.0212 -1.10889,-0.0156 -1.8493,0.0176 -2.96759,-0.022 -1.14166,-0.0197 -1.90558,0.0333 -3.13275,0.0299 -6.76666,-0.0462 -13.07001,-0.0359 -19.84845,-0.0725 -9.52136,-0.0825 -18.69151,-0.55428 -27.87401,-0.62498 -0.014,-2.30124 -0.0385,-4.52735 -0.0385,-5.48493 -10.07367,-0.49194 -18.87283,-0.69164 -27.9523,-0.94838 -16.2633,-0.46003 -32.53241,-0.71588 -48.79913,-1.05707 m 19.30694,-53.54531 c -0.77504,-0.56114 -2.45556,-2.38593 -3.13618,-2.84438 -1.03685,-0.69839 -3.01201,-0.60554 -3.79062,0.0515 -0.64354,0.54303 -1.91173,3.06376 -2.2828,4.1739 -0.25304,0.75701 -0.35908,2.32772 -0.45672,3.23677 -0.12653,1.74064 -0.0303,3.35607 0.24496,5.01198 0.007,0.67145 0.17775,1.83336 0.3829,2.50008 0.30544,2.01998 0.44565,2.25741 1.15023,4.39857 0.58172,2.21084 1.69155,4.27757 2.73037,5.76764 0.63446,0.88812 1.10113,2.19103 2.8965,3.49262 1.70957,1.23938 3.18534,1.15228 4.80239,0.591 1.37673,-2.01 1.42265,-1.82434 2.05312,-3.74924 0.35794,-1.09284 0.43997,-1.91174 0.53127,-2.76986 0.048,-0.45114 0.14974,-2.62607 -0.0527,-4.98577 -0.19166,-2.23447 -0.6859,-4.67103 -0.93536,-5.67344 m 136.0404,50.34272 h 12.34442 c -0.0335,-0.97406 -0.0668,-1.94812 -0.10022,-2.92218 -11.48138,-0.058 -22.96264,-0.23859 -34.44439,0.10831 l -0.0857,2.78359 c 7.0968,0.0101 14.19367,0.0202 22.28589,0.0303 z"
     id="path12373"
     style="fill:#4d4d4d"
     sodipodi:nodetypes="cssssssssssscsccccccccccccccsccssscccccscssscccccccc" /><path
     fill="#eae8ec"
     opacity="1"
     stroke="none"
     d="m 810.03613,340.53455 c -25.6878,0.44039 -51.38952,0.4548 -77.55883,0.4667 -0.24311,-2.42511 -0.0187,-4.84775 0.36419,-7.63644 16.42523,-0.0248 32.69434,0.23101 48.95764,0.69104 9.07947,0.25674 18.14936,0.85269 28.22303,1.34463 0,0.95758 0,2.83283 0.014,5.13407 z"
     id="path12407"
     sodipodi:nodetypes="cccsccc" /><path
     fill="#eae8ec"
     opacity="1"
     stroke="none"
     d="m 891.98706,338.99756 c -7.59454,-0.0101 -14.69141,-0.0202 -21.78821,-0.0303 l 0.0857,-2.78359 c 11.48175,-0.3469 22.96301,-0.16629 34.44439,-0.10831 0.0334,0.97406 0.0668,1.94812 0.10022,2.92218 z"
     id="path12543"
     sodipodi:nodetypes="cccccc" /><path
     style="opacity:1;fill:#929292;fill-opacity:1;stroke-width:1.45982"
     id="path15778"
     sodipodi:type="arc"
     sodipodi:cx="-658.47626"
     sodipodi:cy="-539.04395"
     sodipodi:rx="6.8409338"
     sodipodi:ry="15.553831"
     sodipodi:start="2.6946976"
     sodipodi:end="2.6946172"
     sodipodi:arc-type="slice"
     d="m -664.64537,-532.32208 a 6.8409338,15.553831 0 0 1 3.21256,-20.74807 6.8409338,15.553831 0 0 1 9.12554,7.30378 6.8409338,15.553831 0 0 1 -3.21219,20.74836 6.8409338,15.553831 0 0 1 -9.12567,-7.30295 l 6.16887,-6.72299 z"
     transform="matrix(-0.9366632,0.35023142,-0.24779293,-0.96881302,0,0)"
     inkscape:transform-center-x="0.13648904"
     inkscape:transform-center-y="0.62015259" /></g><g
   id="g526"
   inkscape:label="Table"
   style="display:inline"><path
     id="path12545"
     d="m 806.5252,332.76172 c -3.6495,0.14689 -175.11103,0.70294 -190.12591,0.72329 0.0702,2.61963 -0.25116,12.52207 -0.30129,17.54267 -11.85801,-0.34521 -254.352,0.85193 -288.3768,1.14252 0.0611,1.32405 -0.0219,5.42563 0.043,7.01563 145.55349,2.25718 302.73011,-0.99932 444.66211,-0.13282 4.20507,0.61363 3.24122,-3.69905 3.03667,-6.63191 2.64451,-0.11664 20.47862,-0.17223 31.10002,-0.18449 0.1769,-1.82021 0.2165,-14.56713 -0.038,-19.47489 z"
     sodipodi:nodetypes="cccccccccc"
     style="fill:#a1bdec;fill-opacity:1" /><path
     fill="#d2e1f8"
     opacity="1"
     stroke="none"
     d="m 838.03987,341.48949 c -0.049,2.83903 -0.28913,11.58749 -0.0374,17.32126 -3.80235,0.11508 -126.26892,1.18545 -131.98212,1.20265 -81.67158,0.15177 -84.87747,0.26474 -195.37212,0.50121 -2.63493,-0.0426 -7.78023,0.48069 -8.43773,-0.56932 -1.32477,-2.1157 -1.15436,-5.31421 -1.18131,-8.0701 -0.10647,-10.87131 -0.0462,-10.87177 10.57712,-10.87174 73.155,3.1e-4 146.30997,5.8e-4 220.40177,4.6e-4 36.96089,-0.5549 80.3764,-0.31887 106.03181,0.48558 z"
     id="path12375"
     style="display:inline;fill:#507edd;fill-opacity:1"
     sodipodi:nodetypes="ccccscscc"
     transform="translate(-221.5991,-7.9489441)" /><path
     style="opacity:0.958053;fill:#808080;fill-opacity:1"
     d="m 381.875,358.18473 -53.01199,302.86144 0.21142,1.80425 0.3803,1.40284 0.85906,1.27453 1.23425,1.47223 0.83443,0.80809 0.48333,0.0627 0.42551,-0.1428 0.28024,-0.40983 0.49851,-0.62469 0.62722,-0.83552 0.95825,-1.63946 0.80545,-1.66471 0.77406,-1.94168 0.58022,-2.12773 0.0982,-0.76458 58.15712,-299.33805 c -4.73131,-1.22988 -9.34753,-0.1942 -14.19558,-0.19703 z"
     id="path7448"
     sodipodi:nodetypes="ccccccccccccccccccc" /><path
     style="opacity:0.958053;fill:#808080;fill-opacity:1"
     d="m 465.31416,357.87044 48.38651,308.91047 -1.29873,4.29674 -3.31253,-0.86372 -2.43687,-4.46665 -57.65918,-308.60237 z"
     id="path4485" /><path
     style="opacity:0.958053;fill:#818181;fill-opacity:1"
     d="m 667.61212,360.94464 -52.63986,305.59986 -0.69853,1.0285 -1.27235,1.24392 -1.10164,0.79413 -0.85608,0.0684 -0.58136,-0.70574 -1.13439,-1.66382 -0.1075,-1.60133 0.0649,-4.46718 0.52468,-4.30567 0.58855,-4.61378 0.40819,-3.76323 42.84942,-289.59213 12.63749,-0.53195 z"
     id="path7826" /><path
     fill="#f7f7fa"
     opacity="1"
     stroke="none"
     d="m 722.66729,359.19345 c 8.73053,0.24166 5.62258,0.018 13.7416,0.17015 5.32962,19.96116 -0.16202,0.2194 5.3805,19.83614 4.74078,20.64942 9.71332,41.24561 14.55932,62.2623 3.60657,16.14957 7.28773,31.89056 10.95942,48.03937 3.22412,14.52047 6.4577,28.63321 9.77252,43.14328 4.07725,17.74225 7.99425,35.10589 12.10245,52.42419 2.0635,8.69873 4.4334,17.32617 6.7525,25.96222 2.2409,10.19723 2.0027,7.89566 2.961,15.84692 1.1642,5.66272 2.8825,11.21161 4.4116,16.79932 1.8438,8.29175 3.6877,16.58356 5.8023,25.12653 -0.4876,1.90661 -0.8986,4.6474 -2.0671,5.02154 -4.1438,1.32672 -4.8764,-2.54614 -6.3334,-5.78973"
     id="path12467"
     sodipodi:nodetypes="ccccccsccccsc"
     style="fill:#818181;fill-opacity:0.960784" /></g></svg>
